<?xml version="1.0" encoding="UTF-8" standalone="no" ?>
<!DOCTYPE svg PUBLIC "-//W3C//DTD SVG 1.1//EN" "http://www.w3.org/Graphics/SVG/1.1/DTD/svg11.dtd">
<svg xmlns="http://www.w3.org/2000/svg" xmlns:xlink="http://www.w3.org/1999/xlink" version="1.1" width="1080" height="1080" viewBox="0 0 1080 1080" xml:space="preserve">
<desc>Created with Fabric.js 5.2.4</desc>
<defs>
</defs>
<g transform="matrix(1 0 0 1 540 540)" id="73b2feb2-25c0-4942-b7e2-706b4f9d4a52"  >
<rect style="stroke: none; stroke-width: 1; stroke-dasharray: none; stroke-linecap: butt; stroke-dashoffset: 0; stroke-linejoin: miter; stroke-miterlimit: 4; fill: rgb(255,255,255); fill-rule: nonzero; opacity: 1; visibility: hidden;" vector-effect="non-scaling-stroke"  x="-540" y="-540" rx="0" ry="0" width="1080" height="1080" />
</g>
<g transform="matrix(1 0 0 1 540 540)" id="32228bf8-13db-43cb-91c0-bb8bcab704da"  >
</g>
<g transform="matrix(1 0 0 1 540 540)"  >
<g style="" vector-effect="non-scaling-stroke"   >
		<g transform="matrix(1 0 0 1 0 0)"  >
<rect style="stroke: none; stroke-width: 1; stroke-dasharray: none; stroke-linecap: butt; stroke-dashoffset: 0; stroke-linejoin: miter; stroke-miterlimit: 4; fill: rgb(255,255,255); fill-rule: nonzero; opacity: 1; visibility: hidden;" vector-effect="non-scaling-stroke"  x="-540" y="-540" rx="0" ry="0" width="1080" height="1080" />
</g>
		<g transform="matrix(40 0 0 40 0 0)"  >
<path style="stroke: none; stroke-width: 1; stroke-dasharray: none; stroke-linecap: butt; stroke-dashoffset: 0; stroke-linejoin: miter; stroke-miterlimit: 4; fill: rgb(35,61,98); fill-rule: evenodd; opacity: 1;" vector-effect="non-scaling-stroke"  transform=" translate(-13.5, -14)" d="M 19.614233 20.1771162 C 17.5228041 20.1771162 15.8274241 18.4993457 15.8274241 16.4299995 C 15.8274241 14.3602937 17.5228041 12.6825232 19.614233 12.6825232 C 21.7056619 12.6825232 23.4010418 14.3602937 23.4010418 16.4299995 C 23.4010418 18.4993457 21.7056619 20.1771162 19.614233 20.1771162 M 20.7478775 9.21551429 L 20.7478775 5.88190722 C 21.6271788 5.47091457 22.243053 4.59067833 22.243053 3.56912967 L 22.243053 3.49218091 C 22.243053 2.08229273 21.0774338 0.928780545 19.6527478 0.928780545 L 19.5753548 0.928780545 C 18.1506688 0.928780545 16.9850496 2.08229273 16.9850496 3.49218091 L 16.9850496 3.56912967 C 16.9850496 4.59067833 17.6009238 5.47127414 18.4802251 5.88226679 L 18.4802251 9.21551429 C 17.1710836 9.4157968 15.9749432 9.95012321 14.9884545 10.7365107 L 5.73944086 3.61659339 C 5.80048326 3.3846684 5.84335828 3.14591151 5.84372163 2.89492912 C 5.84517502 1.29842223 4.53930368 0.00215931486 2.92531356 0.00000187311107 C 1.31205014 -0.00179599501 0.00181863138 1.29087118 0.0000018932965 2.88773765 C -0.00181484479 4.48460412 1.30405649 5.78086703 2.91804661 5.7826649 C 3.44381061 5.78338405 3.93069642 5.63559929 4.35726652 5.39540411 L 13.4551275 12.3995387 C 12.6815604 13.5552084 12.2281026 14.9395668 12.2281026 16.4299995 C 12.2281026 17.9901894 12.7262522 19.433518 13.5677653 20.6204705 L 10.8012365 23.3586237 C 10.5825013 23.2935408 10.3557723 23.2482346 10.1152362 23.2482346 C 8.78938076 23.2482346 7.71423516 24.3118533 7.71423516 25.6239375 C 7.71423516 26.9363812 8.78938076 28 10.1152362 28 C 11.441455 28 12.5162373 26.9363812 12.5162373 25.6239375 C 12.5162373 25.3866189 12.4704555 25.1618854 12.4046896 24.9454221 L 15.1414238 22.2371135 C 16.3837093 23.1752411 17.9308435 23.7390526 19.614233 23.7390526 C 23.6935367 23.7390526 27 20.466573 27 16.4299995 C 27 12.7756527 24.2872467 9.7566726 20.7478775 9.21551429" stroke-linecap="round" />
</g>
</g>
</g>
</svg>