<?xml version="1.0" encoding="UTF-8" standalone="no" ?>
<!DOCTYPE svg PUBLIC "-//W3C//DTD SVG 1.1//EN" "http://www.w3.org/Graphics/SVG/1.1/DTD/svg11.dtd">
<svg xmlns="http://www.w3.org/2000/svg" xmlns:xlink="http://www.w3.org/1999/xlink" version="1.1" width="1080" height="1080" viewBox="0 0 1080 1080" xml:space="preserve">
<desc>Created with Fabric.js 5.2.4</desc>
<defs>
</defs>
<g transform="matrix(1 0 0 1 540 540)" id="7523bfcc-a206-4109-9a40-73769a716699"  >
<rect style="stroke: none; stroke-width: 1; stroke-dasharray: none; stroke-linecap: butt; stroke-dashoffset: 0; stroke-linejoin: miter; stroke-miterlimit: 4; fill: rgb(255,255,255); fill-rule: nonzero; opacity: 1; visibility: hidden;" vector-effect="non-scaling-stroke"  x="-540" y="-540" rx="0" ry="0" width="1080" height="1080" />
</g>
<g transform="matrix(1 0 0 1 540 540)" id="13a9e592-fb92-4ed1-ba90-91155bacdb92"  >
</g>
<g transform="matrix(2.11 0 0 2.11 540 540)" id="Layer_1"  >
<path style="stroke: none; stroke-width: 1; stroke-dasharray: none; stroke-linecap: butt; stroke-dashoffset: 0; stroke-linejoin: miter; stroke-miterlimit: 4; fill: rgb(0,0,0); fill-rule: nonzero; opacity: 1;"  transform=" translate(-256, -256)" d="M 160 240 L 160 272 C 160 280.844 152.844 288 144 288 L 112 288 C 103.156 288 96 280.844 96 272 L 96 240 C 96 231.156 103.156 224 112 224 L 144 224 C 152.844 224 160 231.156 160 240 z M 144 352 L 112 352 C 103.156 352 96 359.156 96 368 L 96 400 C 96 408.844 103.156 416 112 416 L 144 416 C 152.844 416 160 408.844 160 400 L 160 368 C 160 359.156 152.844 352 144 352 z M 272 224 L 240 224 C 231.156 224 224 231.156 224 240 L 224 272 C 224 280.844 231.156 288 240 288 L 272 288 C 280.844 288 288 280.844 288 272 L 288 240 C 288 231.156 280.844 224 272 224 z M 272 352 L 240 352 C 231.156 352 224 359.156 224 368 L 224 400 C 224 408.844 231.156 416 240 416 L 272 416 C 280.844 416 288 408.844 288 400 L 288 368 C 288 359.156 280.844 352 272 352 z M 400 224 L 368 224 C 359.156 224 352 231.156 352 240 L 352 272 C 352 280.844 359.156 288 368 288 L 400 288 C 408.844 288 416 280.844 416 272 L 416 240 C 416 231.156 408.844 224 400 224 z M 400 352 L 368 352 C 359.156 352 352 359.156 352 368 L 352 400 C 352 408.844 359.156 416 368 416 L 400 416 C 408.844 416 416 408.844 416 400 L 416 368 C 416 359.156 408.844 352 400 352 z M 112 96 L 144 96 C 152.844 96 160 88.844 160 80 L 160 16 C 160 7.156000000000001 152.844 0 144 0 L 112 0 C 103.156 0 96 7.156 96 16 L 96 80 C 96 88.844 103.156 96 112 96 z M 512 128 L 512 448 C 512 483.344 483.344 512 448 512 L 64 512 C 28.656 512 0 483.344 0 448 L 0 128 C 0 92.656 28.656 64 64 64 L 80 64 L 80 80 C 80 97.625 94.359 112 112 112 L 144 112 C 161.641 112 176 97.625 176 80 L 176 64 L 336 64 L 336 80 C 336 97.625 350.375 112 368 112 L 400 112 C 417.625 112 432 97.625 432 80 L 432 64 L 448 64 C 483.344 64 512 92.656 512 128 z M 480 192 C 480 174.375 465.656 160 448 160 L 64 160 C 46.359 160 32 174.375 32 192 L 32 448 C 32 465.656 46.359 480 64 480 L 448 480 C 465.656 480 480 465.656 480 448 L 480 192 z M 368 96 L 400 96 C 408.844 96 416 88.844 416 80 L 416 16 C 416 7.156000000000001 408.844 0 400 0 L 368 0 C 359.156 0 352 7.156 352 16 L 352 80 C 352 88.844 359.156 96 368 96 z" stroke-linecap="round" />
</g>
</svg>