<svg xmlns="http://www.w3.org/2000/svg" xmlns:xlink="http://www.w3.org/1999/xlink" width="1024" height="547" fill="none" xmlns:v="https://vecta.io/nano"><style><![CDATA[.B{fill:#d38f68}.C{fill:#a36a4d}.D{fill:#d7a7d7}.E{fill:#2f2219}.F{stroke-linecap:round}.G{stroke-linejoin:round}]]></style><g clip-path="url(#B)"><path fill="#f0d7f0" d="M0 0h1024v546.13H0z"/><mask id="A" maskUnits="userSpaceOnUse" x="183" y="65" width="658" height="577" mask-type="alpha"><path d="M490.494 66.188c-86.395-5.872-177.874 8.737-235.872 73.078-62.56 69.402-83.201 167.532-63.337 258.856 20.416 93.861 80.066 176.102 166.869 217.132 87.235 41.233 234.641 31.865 321.694-9.751 88.842-42.47 146.791-109.555 158.455-207.381 10.911-91.52-31.865-170.951-96.834-236.289-73.944-60.181-173.955-90.41-250.975-95.645z" fill="#440f7d"/></mask><g mask="url(#A)"><path transform="matrix(-1 0 0 1 1121.76 -148.031)" fill="#f0d7f0" d="M0 0h1304.35v929.42H0z"/><g clip-path="url(#C)"><path d="M679.14 471.472l44.902 22.24c-23.584 47.493-59.633 85.349-104.329 109.481l-23.837-44.055c35.537-19.178 64.331-49.504 83.264-87.666zm-.286-272.039a239.09 239.09 0 0 1 44.173 58.247l-44.119 23.717c-19.063-35.371-48.618-63.432-87.839-83.414l22.764-44.615c24.532 12.543 46.411 28.024 65.021 46.065z" class="D"/><use xlink:href="#D" class="D"/><path d="M692.836 436.634c11.959-40.157 12.034-83.289.216-121.452l47.862-14.796a251.16 251.16 0 0 1 11.112 75.625 266.85 266.85 0 0 1-11.166 74.924l-.064.221-48.036-14.279.076-.243zm-437.862-130.2l.178-.582 48.009 14.408-.135.458c-11.877 39.597-11.348 81.878 1.516 121.167l-47.642 15.54c-16.042-48.956-16.714-101.643-1.926-150.991zm150.929 254.047l-22.693 44.647c-45.986-23.299-83.733-60.104-108.17-105.471l44.049-23.83c19.612 36.412 49.907 65.953 86.814 84.654zm165.053-425.004l1.392.459-11.441 33.29-4.24 14.251c-39.505-11.827-81.679-11.34-120.899 1.396l-15.466-47.633c48.87-15.883 101.426-16.498 150.654-1.763z" class="D"/><use xlink:href="#D" class="D"/><path d="M197.444 320.077s44.194 42.383 124.605 76.827a534.96 534.96 0 0 0 50.29 18.607l3.15.981 62.487-53.994-60.669-19.777-24.274-7.498c-41.319-12.526-86.409-24.903-106.923-26.11-42.673-2.517-48.666 10.964-48.666 10.964z" class="B"/><path d="M322.049 396.903a534.68 534.68 0 0 0 50.29 18.607l4.968-72.768-24.274-7.498-30.984 61.659z" class="C"/><path d="M267.427 178.055a1.9 1.9 0 0 1 .286-.334c3.474-4.054 38.595-44.739 70.243-69.027a14.8 14.8 0 0 1 17.801-.168c8.603 6.361 20.066 16.624 19.138 25.604-1.472 14.252-29.986 53.503-51.698 53.768l-22.288.539c-2.125.075-4.163.858-5.79 2.226s-2.749 3.241-3.186 5.32c-2.46 11.621-6.635 32.67-9.882 55.94-4.92 35.268-28.428 109.125-28.428 109.125l-56.185-40.966c15.109-57.535 69.989-142.027 69.989-142.027z" class="B"/><path d="M369.389 148.273s7.891 2.825 7.945 8.851-9.709 20.219-27.284 16.133l19.339-24.984z" class="C"/><path d="M320.71 186.986l5.114-11.74 8.82.717-26.033-2.016m44.894-6.905l-14.683-12.451m25.164-2.021l-14.683-12.457m21.839-2.054l-14.683-12.452" stroke="#a36a4d" stroke-width="2" class="F G"/><path d="M625.829 375.558v83.236c17.801-1.537 34.043-3.483 48.845-5.746 132.243-20.154 149.667-65.023 149.667-65.023-15.223-9.228-106.018-11.648-159.393-12.268l-39.119-.199z" class="B"/><path d="M625.829 375.558v83.236c17.8-1.537 34.042-3.483 48.844-5.746l-9.71-77.291-39.134-.199zm55.429-181.467s-10.917-11.622-15.103-6.366-3.237 24.87 19.349 28.455-4.246-22.089-4.246-22.089z" class="C"/><path d="M703.418 158.342c2.176-1.372 4.71-2.07 7.282-2.007s5.069.885 7.175 2.363c42.317 29.727 58.257 69.744 58.257 69.75 14.877 29.721 62.119 128.783 49.486 163.598 0 0-22.262 19.082-65.021 39.559-1.883-118.391-5.869-175.802-5.869-175.802l-28.962-3.725s-19.354 3.272-32.775-13.297c-4.428-5.471-12.358-38.443-15.864-53.746-.547-2.387-.366-4.883.52-7.166s2.438-4.248 4.454-5.641c6.305-4.356 15.152-10.01 21.317-13.886z" class="B"/><path d="M725.587 250.139l-1.559-12.711-8.657-1.822 25.53 5.466m-51.414-18.165l17.623-7.767m-23.548-9.094l17.623-7.762m-20.358-8.182l17.617-7.767" stroke="#a36a4d" stroke-width="2" class="F G"/><path d="M593.184 504.179c-6.03 18.71-12.406 47.218-18.556 99.385-1.505 12.786.658 27.447 4.753 42.427h-246.39c3.161-11.541 5.696-23.033 7.325-32.142 3.776-21.109 29.921-107.875 39.917-140.685-18.928-23.426-44.971-37.225-44.971-37.225-15.503-35.673 25.352-100.797 25.352-100.797 25.973 2.274 96.173 28.864 97.495 29.01 15.217 1.676 29.468-8.053 54.551-5.52 28.751 2.906 25.455 15.411 76.436 3.773 4.547-1.04 74.979 10.625 74.979 10.625-1.133 81.166-26.022 124.514-26.022 124.514-16.797-.06-26.712 3.563-44.869 6.635z" fill="#f66d11"/><path d="M499.518 379.11c25.261 9.347 49.583-10.354 49.583-10.354-1.839-3.127-2.627-7.342-2.697-12.101-.173-10.635 3.204-23.965 6.295-33.856 2.557-8.188 4.925-14.015 4.925-14.015h-62.632l-4.218 11.179-9.737 25.793-5.847 15.491s-.933 8.511 24.328 17.863z" class="B"/><path d="M481.045 345.75c4.029 8.84 13.809 16.295 37.009 19.852 9.58 1.472 19.338-2.641 28.357-8.947-.172-10.635 3.205-23.965 6.296-33.856l-61.926-2.841-9.736 25.792z" class="C"/><path d="M578.333 138l2.282 1.046s37.22 9.379 47.657 41.769-27.391 52.824-27.391 52.824l-42.749-65.303 5.232-26.859L578.333 138z" class="E"/><path d="M605.384 211.248c2.752 26.665 5.583 51.983-.539 72.945-22.283 76.304-88.27 76.062-125.625 53.957-14.327-8.485-25.498-18.155-32.975-30.611-10.594-17.659-27.024-50.458-25.304-81.802 2.519-45.914 37.814-69.804 75.379-79.377 72.594-18.499 106.313 38.228 109.064 64.888z" class="B"/><path d="M424.47 132.307c5.934-6.031 14.532-8.036 22.218-8.414-7.265-5.444-8.22-12.839-8.22-12.839s7.266 2.285 18.545 2.431c2.891.037 6.905-.421 11.279-1.127 28.751-11.637 100.262-27.215 129.633 39.122l-38.962 5.601c-5.25 3.488-10.745 6.593-16.442 9.293 0 0-44.771-12.49-69.86-5.655 0 0-20.061 32.088-37.802 47.461 0 0 16.846 22.359 4.472 52.048l-34.857-3.509s-10.751-21.469-12.52-38.632 7.357-37.683 12.363-44.566l.248-.34c-13.739 1.504-19.737-8.516-19.737-8.516 15.373-.049 26.367-18.86 39.642-32.358z" class="E"/><path d="M404.291 243.578c16.36-14.672 45.311 21.345 46.363 42.141 0 0 1.98 20.397-15.848 18.192-13.96-1.725-52.842-40.287-30.515-60.333z" class="B"/><path d="M556.882 233.346c-1.598-7.412.071-14.059 3.729-14.847s7.919 4.583 9.517 11.995-.071 14.06-3.729 14.847-7.919-4.583-9.517-11.995zM488.26 245.95c-1.598-7.412.071-14.06 3.729-14.847s7.919 4.582 9.517 11.995-.071 14.059-3.729 14.847-7.919-4.583-9.517-11.995z" class="E"/><path d="M559.807 288.258s-22.407 7.476-57.054.986c0 0 7.25 35.743 30.558 35.215s26.496-36.201 26.496-36.201z" fill="#fff"/><path d="M544.035 236.393c.583 5.061 3.496 9.659 7.013 13.286a36.58 36.58 0 0 0 12.946 8.129l-1.16-1.709c-.032.906-.14 1.978-.27 2.916-.954 7.067-4.315 13.945-11.16 16.969 8.215-.809 13.367-8.829 14.623-16.403.283-1.522.433-3.066.448-4.614l-2.832-1.218c-8.188-3.423-15.67-9.212-19.608-17.356z" class="C"/><path d="M588.4 207.566l-37.285-.679s14.101-20.639 37.285.679zm-90.581 2.011l-33.843 15.631s3.689-24.682 33.843-15.631z" class="E"/><path d="M593.409 500.072l2.735-38.27m-214.28 8.203l14.586-38.271" stroke="#d45500" stroke-width="4.23" class="F G"/></g></g></g><defs><clipPath id="B"><path fill="#fff" d="M0 0h1024v546.13H0z"/></clipPath><clipPath id="C"><path fill="#fff" transform="matrix(-1 0 0 1 827.738 101.972)" d="M0 0h630.294v544.024H0z"/></clipPath><path id="D" d="M316.9 285.961l-44.642-22.757a252.47 252.47 0 0 1 105.726-107.896l23.772 44.086a202.6 202.6 0 0 0-84.856 86.567z"/></defs></svg>