<svg xmlns="http://www.w3.org/2000/svg" width="1024" height="547" fill="none" xmlns:v="https://vecta.io/nano"><style><![CDATA[.B{fill:#2687bd}.C{fill:#d38f68}.D{fill:#a36a4d}.E{fill:#c7efff}.F{fill:#2f2219}.G{fill:#f66d11}.H{fill:#fcb288}.I{fill:#6f3a9c}.J{stroke-linecap:round}.K{stroke-linejoin:round}.L{fill:#2d2222}.M{fill:#e67e61}.N{stroke-miterlimit:10}]]></style><g clip-path="url(#A)"><path fill="#f0d7f0" d="M0 0h1024v546.13H0z"/><g clip-path="url(#B)"><path d="M606.458 169.913c-16.949 17.107-7.22 53.902 32.853 98.689 36.458-9.098 50.045-36.694 50.045-36.694s-17.778-25.033-33.263-43.003c-17.535-20.358-36.609-32.137-49.635-18.992z" class="I"/><g fill="#260542"><path d="M674.347 568.984c-.184 7.359-2.544 14.498-6.78 20.513a37.17 37.17 0 0 1-17.019 13.283c-6.859 2.644-14.348 3.192-21.519 1.574a37.15 37.15 0 0 1-18.766-10.664c-5.064-5.335-8.435-12.055-9.685-19.308a37.26 37.26 0 0 1 2.66-21.443 37.2 37.2 0 0 1 14.109-16.348c6.214-3.932 13.453-5.93 20.801-5.742 4.878.122 9.684 1.205 14.144 3.188a37.12 37.12 0 0 1 11.847 8.367c3.362 3.542 5.994 7.712 7.746 12.273a37.24 37.24 0 0 1 2.462 14.307z"/><path d="M674.305 566.076l-31.54-201.191c-3.555-22.619-82.922 8.244-81.567 31.098 4.635 77.863 19.241 102.208 38.701 183.472l74.406-13.379z"/><path d="M674.306 566.077c.391 7.351-1.405 14.653-5.159 20.982a37.18 37.18 0 0 1-15.932 14.574c-6.633 3.173-14.057 4.304-21.333 3.251a37.14 37.14 0 0 1-19.54-9.166 37.22 37.22 0 0 1-11.16-18.495c-1.811-7.134-1.469-14.647.984-21.586s6.905-12.995 12.795-17.4a37.12 37.12 0 0 1 20.293-7.346 37.08 37.08 0 0 1 14.347 2.072c4.6 1.628 8.835 4.148 12.461 7.416a37.17 37.17 0 0 1 8.676 11.629c2.101 4.409 3.314 9.19 3.568 14.069zm-107.452 22.996c-1.386 7.232-4.883 13.889-10.047 19.13a37.16 37.16 0 0 1-18.968 10.314c-7.202 1.483-14.682.794-21.493-1.98s-12.647-7.509-16.771-13.605a37.27 37.27 0 0 1-6.394-20.644c-.045-7.363 2.091-14.575 6.139-20.722a37.18 37.18 0 0 1 16.602-13.811 37.12 37.12 0 0 1 21.467-2.246 37.09 37.09 0 0 1 13.434 5.464 37.13 37.13 0 0 1 10.32 10.2 37.21 37.21 0 0 1 5.63 13.381c.98 4.787 1.007 9.721.081 14.519z"/><path d="M565.932 591.259l38.525-199.967c4.317-22.486-87.323-46.002-93.79-24.028-22.036 74.813-8.065 127.015-17.317 210.021l72.582 13.974z"/><path d="M565.934 591.26a37.2 37.2 0 0 1-11.967 17.971 37.12 37.12 0 0 1-19.922 8.284 37.11 37.11 0 0 1-21.16-4.195c-6.483-3.464-11.796-8.775-15.265-15.262s-4.94-13.858-4.226-21.182a37.24 37.24 0 0 1 8.239-19.963c4.657-5.693 10.895-9.874 17.926-12.015s14.537-2.148 21.57-.017c4.671 1.413 9.018 3.733 12.793 6.829s6.903 6.906 9.207 11.213 3.737 9.027 4.218 13.889a37.25 37.25 0 0 1-1.413 14.448z"/></g><path d="M647.457 235.048c-8.851-78.549-46.087-86.022-81.517-86.089-15.895 0-45.678 13.924-55.374 28.484-6.534 9.794-4.442 23.357-4.71 50.434l-1.062 100.96-8.366 96.343s49.902 20.107 95.254 19.537 59.481-21.304 59.481-21.304l-3.706-188.365z" class="I"/><g class="C"><path d="M588.747 174.687c14.222.168 20.304-10.489 16.079-19.193-12.172-5.404-25.649-6.468-38.884-6.493-5.02 0-11.361 1.366-18.037 3.695.795 9.634 17.71 21.681 40.842 21.991z"/><path d="M552.791 158.417c3.48-4.432 2.384-38.63 2.384-38.63l41.612 17.593s-.042 3.351.075 7.683a104.92 104.92 0 0 0 1.129 14.007c1.197 6.552-51.826 7.775-45.2-.653z"/></g><path d="M596.862 145.063a43.76 43.76 0 0 1-10.691 1.91c-15.687 1.055-30.996-27.186-30.996-27.186l41.612 17.593s-.042 3.36.075 7.683z" class="D"/><g class="C"><path d="M633.237 7.828l-96.76 5.454s-3.347 42.626 2.994 75.701c6.476 33.62 31.657 52.067 54.287 53.014 44.682 1.868 48.112-42.24 47.267-60.244-.644-14.569-7.788-73.925-7.788-73.925zM502.042 185.72c13.427-12.826 26.286-14.72 34.217-3.803 5.689 7.858 10.775 3.585 6.542 15.54-7.488 25.284-21.216 42.525-49.359 73.833-17.468 19.436-22.772 26.808-34.518 38.328-8.499-.235-32.694-7.096-31.673-15.558 5.103-15.884 48.02-82.771 74.791-108.34z"/></g><path d="M469.257 225.498l-.435.285c-4.635 6.392-9.144 12.876-13.385 19.126 3.003 4.306 8.248 10.003 17.493 16.203 8.633 5.797 15.41 8.821 20.304 10.405.059-.08.123-.155.192-.227l16.632-18.941-40.801-26.851z" class="D"/><path d="M543.277 169.184c17.234 18.213 4.786 60.319-37.981 105.969-27.917-4.641-49.752-43.455-49.752-43.455s19.099-25.619 35.639-43.949c18.714-20.752 38.834-32.548 52.094-18.565z" class="I"/><g class="C"><path d="M505.632 386.484c7.228 3.946 20.078-12.567 14.222-18.356-17.334-17.199-30.745-33.452-39.32-46.856-8.809-13.782-17.367-26.683-22.789-32.564-7.847-8.537-33.58 8.377-29.657 16.587 18.916 39.644 59.507 71.295 77.544 81.189z"/><path d="M432.013 310.791c2.442 2.348 5.526 3.915 8.86 4.503a17.04 17.04 0 0 0 9.864-1.206 17.07 17.07 0 0 0 7.519-6.505 17.1 17.1 0 0 0 2.623-9.597c-.095-3.389-1.196-6.673-3.162-9.433a17.05 17.05 0 0 0-7.874-6.068c-3.168-1.196-6.62-1.42-9.916-.645s-6.287 2.516-8.592 4.999a17.02 17.02 0 0 0-4.588 12.115c.127 4.487 2.019 8.742 5.266 11.837z"/></g><path d="M837.508 226.679l-238.479-7.883-3.605 1.784s-14.122 184.938 5.973 232.9c30.828 73.615 95.873 98.095 95.873 98.095s66.768-20.944 106.297-92.264c25.767-46.446 33.941-232.632 33.941-232.632z" class="B"/><path d="M839.999 226.763l-118.846-31.299-122.142 23.332s-14.222 185.985 5.898 233.939c30.845 73.606 94.81 98.949 94.81 98.949s66.785-20.945 106.314-92.264c25.784-46.471 33.966-232.657 33.966-232.657z" fill="#1094c9"/><path d="M698.433 532.172c-14.364-7.171-58.561-32.958-81.534-87.899-12.415-29.657-10.189-138.726-5.488-210.054l108.631-20.157 100.793 27.111c-3.874 71.378-14.741 180.171-30.653 208.864-29.507 53.165-76.581 75.936-91.749 82.135z" class="B"/><path d="M700.917 532.264c-14.355-7.179-58.561-32.974-81.525-87.907-12.424-29.649-10.182-138.726-5.488-210.054l106.138-20.241 103.285 27.195c-3.881 71.378-14.749 180.17-30.652 208.864-29.507 53.165-76.59 75.935-91.758 82.143z" class="E"/><path d="M701.812 517.461c-15.895-8.763-52.136-32.958-71.578-79.387-9.638-22.997-9.839-112.052-5.095-192.159l94.066-17.971 91.523 24.111c-4.877 80.108-15.761 168.803-28.109 191.062-24.939 44.963-63.949 66.678-80.807 74.344z" fill="#65c5ec"/><g class="B"><path d="M808.987 251.594c-5.02 78.926-16.732 168.836-28.829 190.592-22.873 41.244-59.883 65.64-78.506 75.182l.159.092c16.858-7.674 55.868-29.381 80.807-74.344 12.348-22.259 23.232-110.954 28.109-191.061l-1.74-.461zm-81.802 88.745l2.627-43.816-21.233-.695-2.627 43.807-38.341-1.273-1.464 24.278 38.349 1.265-2.635 43.824 21.233.695 2.635-43.815 38.333 1.265 1.455-24.262-38.332-1.273z"/></g><path d="M729.669 340.414l2.636-43.807-21.241-.704-2.627 43.816-38.341-1.274-1.456 24.27 38.341 1.274-2.635 43.815 21.232.696 2.636-43.807 38.341 1.265 1.455-24.271-38.341-1.273z" class="E"/><g class="C"><path d="M539.397 360.897s-33.397 9.593-28.101 1.827c6.558-9.744 16.474-16.723 27.85-19.604 7.646-2.061 16.79-7.666 17.744-1.156.485 3.451-5.438 7.045-12.549 9.014-7.964 2.237-4.944 9.919-4.944 9.919z"/><path d="M508.619 365.138c1.815-2.396 5.747-6.468 9.277-7.44s19.434-6.082 23.073-6.35 4.836 9.986 2.719 17.233-5.814 16.328-10.875 18.431-19.719 3.51-29.549-1.332c-2.3-1.123 1.925-15.968 5.355-20.542z"/><path d="M508.609 366.051c1.807-2.429 5.756-7.38 9.286-8.377 2.602-.721 12.081-3.737 18.263-5.354-.197 1.795.092 3.609.837 5.253-2.359 2.446-5.02 6.376-4.183 9.71-3.639 1.675-6.174 6.853-3.907 10.346-2.324.678-4.398 2.023-5.965 3.871-1.916 2.513-1.807 4.758-.636 7.397-6.107.294-13.385-.419-19.04-3.208-2.301-1.131 1.907-15.097 5.345-19.638zm31.835-14.72l12.782.285c3.523.1 13.905 5.68 14.683 6.216s7.579 5.613 8.366 6.417c1.589 1.559-2.259 4.725-4.551 4.122-3.205-.837-8.826-4.524-8.826-4.524l-10.098-2.245s-9.454.612-11.035.402-1.321-10.673-1.321-10.673zm2.926 11.276s9.027.319 11.269.93a139.46 139.46 0 0 1 13.327 5.965c3.03 2.393 5.922 4.958 8.658 7.683 2.083 2.513-3.246 6.166-6.274 4.892s-6.902-5.026-6.902-5.026l-12.758-3.888-11.545-.837 4.225-9.719z"/><path d="M536.134 379.672l2.61-9.533s11.712.368 13.904.997 12.884 5.546 12.884 5.546 6.692 4.038 7.337 5.11c2.317 3.946-3.297 5.697-5.171 5.152s-6.617-3.426-6.617-3.426l-10.324-2.136-14.623-1.71z"/><path d="M534.419 378.659l13.009 3.737 10.692 5.428s5.019 3.075 5.019 4.357-2.2 5.395-5.421 4.105-6.383-3.091-6.383-3.091l-8.525-3.058-15.895-2.246 7.504-9.232z"/></g><path d="M617.492 110.28c-6.634 5.647-12.959 5.714-20.078-.678" stroke="#a36a4d" stroke-width="2.91" class="J K"/><path d="M610.699 72.479c1.087 5.027 4.777 8.906 8.884 11.729-.937 3.477-3.07 6.895-6.542 8.202-1.05.376-2.171.507-3.279.385a9.83 9.83 0 0 0 2.919-1.148c2.585-1.6 4.183-4.499 5.02-7.322l.368.972c-4.183-2.798-7.822-7.54-7.337-12.843l-.033.025z" class="D"/><g class="L"><path d="M594.329 77.241c.043-4.335-1.652-7.867-3.787-7.889s-3.9 3.476-3.943 7.811 1.652 7.867 3.787 7.889 3.9-3.476 3.943-7.811zm33.829-1.697c.036-4.335-1.665-7.864-3.799-7.882s-3.895 3.482-3.931 7.817 1.665 7.864 3.799 7.882 3.894-3.482 3.931-7.817zm-55.474-11.702l18.355-4.189s-9.078-8.73-18.355 4.189zm44.976-8.26l18.322 4.289s-4.351-11.855-18.322-4.289z"/></g><path d="M567.539-3.716c11.227.553 16.732 14.443 9.102 22.62-6.266 6.702 2.652-3.158-10.541 4.424-12.607 7.255-17.677 34.349-12.775 47.476.387 1.036.453 2.166.189 3.24a5.49 5.49 0 0 1-1.67 2.782 5.48 5.48 0 0 1-6.14.806l-10.591-5.328s-17.761-24.052-16.255-38.99c5.128-50.626 47.008-37.071 48.681-37.029z" class="F"/><path d="M539.505 63.816c-3.128-5.395-11.168-8.378-15.577-4.114-6.692 6.426-3.204 19.269 2.861 25.971 3.69 4.03 11.177 8.47 15.059 4.775 4.936-4.7 3.639-16.387-2.343-26.633z" class="C"/><path d="M538.51 83.504a1.05 1.05 0 0 0 .516-.457c.116-.206.16-.445.124-.678a1.05 1.05 0 0 0-.32-.61c-.173-.162-.394-.261-.629-.282-.235 0-5.589-.461-5.597-5.077a15.84 15.84 0 0 1 .786-4.315c.586-2.128 1.138-4.122 0-5.63-1.004-1.299-2.986-1.86-6.441-1.809-.138 0-.274.027-.401.081s-.242.131-.339.23-.172.215-.224.343-.076.265-.074.403a1.08 1.08 0 0 0 .325.737 1.07 1.07 0 0 0 .746.302c3.271-.05 4.401.503 4.76.989.527.679.126 2.128-.334 3.795-.501 1.582-.782 3.225-.837 4.884 0 5.253 4.936 6.979 7.529 7.163a1.06 1.06 0 0 0 .41-.067z" class="D"/><g class="F"><path d="M578.967 8.809s1.305 8.528 15.251 13.178c25.365 8.453 45.728-6.535 46.782 56.206 0 0 6.743-32.137 7.145-46.999s-1.674-21.397-11.989-29.707c-11.018-8.847-22.404-23.399-47.459-16.647-6.534 1.759-16.172 10.053-17.017 13.949-1.706 7.783 7.287 10.02 7.287 10.02z"/><path d="M640.415 23.787s2.251 6.828-1.731 9.375c-8.366 5.345-22.772-6.761-28.829-14.728 2.325 4.189 8.148 9.819 15.895 19.537 4.024 5.069-3.012 16.077-13.862 12.567-10.09-3.234-18.263-17.333-24.529-30.796 0 0 1.531 11.343.92 19.83-.385 5.286-10.641 5.027-14.891 1.877-13.896-10.321-32.627-29.95-16.506-53.215-.009.034 61.832-28.308 83.533 35.555z"/></g><g class="J"><path d="M526.965 245.479l-19.241 26.808" stroke="#380762" stroke-width="3" class="N"/><path d="M542.926 371.044l19.267 2.739 8.91 5.974" stroke="#a36a4d" class="K"/></g><g fill="#f1f5f7"><path d="M358.199 580.636s-4.116-103.481 8.918-186.546c3.263-20.835 90.67 6.954 89.415 28.007-4.266 71.696-11.921 96.05-29.816 170.838l-68.517-12.299z"/><path d="M458.841 603.826L416.953 394.09c-3.991-20.709 80.061-47.526 87.064-27.646 34.158 96.955 15.953 151.201 21.676 224.522l-66.852 12.86z"/></g><path d="M527.049 148.951c-1.473-12.156-12.139-10.648-12.164-19.596s9.855-7.816 8.926-20.944-12.49-6.618-13.386-38.102c1.741-26.809-22.855-52.637-57.456-59.071-40.684-7.59-70.676 10.673-75.963 39.107a41.66 41.66 0 0 0-.602 10.12s.619 13.354-4.008 21.573-12.666 13.455-12.214 25.56 11.395 11.729 10.516 18.817-9.796 11.326-10.633 21.463c-1.021 12.45 10.457 15.918 12.139 25.301 2.008 11.276-5.948 10.732 3.807 24.572 19.818 28.157 136.188-6.317 136.188-6.317s17.811-18.096 14.85-42.483z" class="F"/><path d="M392.585 187.128l-101.972 69.535c-8.509 5.722-37.388 24.84-19.786 39.082 15.753 12.751 45.803 4.264 73.277-6.652 29.582-11.771 67.296-31.475 67.296-31.475l-18.815-70.49z" class="G"/><g fill="#6d2132"><path d="M436.98 32.937c-8.617-.989-16.389 0-23.199 3.008a40.47 40.47 0 0 0-7.814 6.803 33.39 33.39 0 0 1 5.07-3.669c7.295-4.139 15.97-5.672 25.767-4.549.209.015.416-.049.58-.179a.84.84 0 0 0 .307-.525.84.84 0 0 0-.182-.584c-.132-.165-.321-.273-.529-.304zm-4.968 165.551a.78.78 0 0 1-.384-.134c-.1-.061-.186-.141-.255-.235a.88.88 0 0 1-.145-.315.9.9 0 0 1-.014-.347c.018-.115.06-.226.121-.326 1.907-3.108 3.246-5.73 1.606-8.88-1.083-1.991-2.498-3.781-4.183-5.295-3.021-2.672-5.096-6.252-5.915-10.204-.836-4.189 1.013-5.948 3.347-8.177l.719-.687c2.928-2.856 4.016-5.554 3.639-9.014a.9.9 0 0 1 .799-.913c.223-.024.447.037.627.17a.9.9 0 0 1 .348.55c.427 4.022-.837 7.255-4.183 10.481l-.736.72c-2.293 2.195-3.455 3.293-2.811 6.51.719 3.594 2.334 6.35 5.396 9.274 1.824 1.649 3.357 3.595 4.534 5.755 2.067 3.971.385 7.306-1.673 10.64a.84.84 0 0 1-.353.342c-.149.076-.317.106-.484.085z"/></g><path d="M494.572 181.112c-20.078-9.383-72.557-13.622-105.025 7.917-14.532 20.409-23.893 47.871-26.202 72.769-1.105 11.729 8.909 44.896 5.086 79.588l-8.659 78.005s101.738 42.157 159.279-11.729c-7.889-30.453-7.914-62.422-9.202-78.013-4.058-47.535-14.398-110.016-15.277-148.537z" class="G"/><g class="H"><path d="M462.463 173.849c10.039 4.75-3.229 27.177-34.358 27.337-30.779.15-19.192-19.202-13.838-23.458 10.692-3.829 31.966-5.998 48.196-3.879z"/><path d="M464.129 176.622c-3.196 9.399-50.831 13.597-52.923 4.758 6.375-2.086 9.06-6.467 9.83-11.343 1.481-9.358-4.082-20.484-4.082-20.484l42.114-.687s-.185 2.128-.176 5.312c.025 6.191.82 16.361 5.237 22.444z"/></g><path d="M459.066 148.866s-.184 2.128-.176 5.312c-6.592 7.347-15.635 15.54-24.495 17.467-6.157 1.341-10.424.277-13.385-1.608 1.506-9.358-4.058-20.484-4.058-20.484l42.114-.687z" class="M"/><g class="H"><path d="M395.051 37.987l86.219 10.799s15.82 43.883-7.922 84.188c-16.255 27.646-63.347 45.013-81.543 14.652-8.633-14.435-9.821-24.438-8.968-38.185.586-9.174 12.214-71.454 12.214-71.454z"/><path d="M476.526 108.26c2.727-3.98 8.768-5.63 11.57-1.802 4.183 5.739.502 15.65-4.484 20.417-3.028 2.857-8.818 5.705-11.244 2.413-3.12-4.239-1.112-13.43 4.158-21.028z"/></g><path d="M485.47 108.503s-5.128-3.937-8.266 7.708c1.464.946.745 3.577-1.213 5.403a6.06 6.06 0 0 0 .21 2.354s3.547-.594 4.517-5.261a6.52 6.52 0 0 0-.887-4.415s2.845-6.811 5.639-5.789z" class="M"/><path d="M485.637 37.988c-11.863-10.338-39.052-22.561-55.098-22.905-27.222-.561-53.006 10.003-55.131 57.211 21.367 9.626 39.32-.436 49.292-15.038a29.98 29.98 0 0 0 11.93 14.711c17.317 10.891 26.495 9.768 31.422 21.665s11.026 33.929 25.098 36.141c8.081-31.701 9.186-77.2-7.513-91.786z" class="F"/><path d="M474.511 236.473c18.832 18.841 16.414 14.125 60.411 54.539 29.422 27.026 45.443 19.453 53.131 5.252s-35.287-93.16-95.103-116.257c-15.686-6.049-33.505 41.403-18.439 56.466z" class="G"/><path d="M553.651 282.266c-40.106 47.987-47.953 68.244-56.294 87.178-3.698 8.378 11.076 17.593 17.51 11.042 0 0 34.961-34.449 63.949-70.901l-25.165-27.319z" class="H"/><path d="M546.799 277.138c-14.9 15.172-19.35 23.91-40.156 66.736-.059.101 4.71 8.629 13.017 12.743 8.115 4.013 17.853 2.689 17.853 2.689s34.953-37.85 45.845-54.514c8.567-13.127 6.785-21.07-2.2-31.684-6.383-7.565-25.115-5.353-34.359 4.03z" class="G"/><path d="M187.493 214.95l238.479-7.891 3.605 1.784s14.122 184.938-5.965 232.9c-30.836 73.607-95.873 98.086-95.873 98.086s-66.776-20.944-106.314-92.263c-25.75-46.43-33.932-232.616-33.932-232.616z" class="B"/><path d="M185 215.033l118.846-31.299 122.142 23.324s14.222 185.985-5.856 233.939c-30.837 73.615-94.828 98.915-94.828 98.915s-66.784-20.944-106.322-92.263C193.182 401.211 185 215.033 185 215.033z" fill="#1094c9"/><path d="M326.602 520.443c14.364-7.172 58.561-32.967 81.534-87.908 12.415-29.648 10.182-138.718 5.497-210.054l-108.674-20.148-100.792 27.119c3.89 71.369 14.741 180.17 30.653 208.864 29.506 53.157 76.581 75.927 91.782 82.127z" class="B"/><path d="M324.092 520.526c14.364-7.179 58.561-32.974 81.526-87.898 12.423-29.657 10.19-138.727 5.496-210.063l-106.155-20.232-103.285 27.194c3.882 71.378 14.749 180.171 30.661 208.873 29.498 53.148 76.59 75.927 91.757 82.126z" class="E"/><path d="M323.187 505.732c15.895-8.763 52.136-32.949 71.579-79.387 9.637-23.005 9.838-112.06 5.095-192.159l-94.058-17.97-91.532 24.102c4.869 80.116 15.762 168.803 28.11 191.071 24.939 44.954 63.949 66.678 80.806 74.343z" fill="#65c5ec"/><g class="B"><path d="M216.02 239.866c5.02 78.918 16.732 168.836 28.821 190.585 22.872 41.251 59.874 65.639 78.505 75.189l-.159.093c-16.857-7.674-55.867-29.389-80.806-74.344-12.348-22.268-23.241-110.954-28.11-191.07l1.749-.453zm80.213 88.702l-2.635-43.815 21.241-.704 2.627 43.815 38.341-1.265 1.464 24.27-38.349 1.265 2.635 43.816-21.233.703-2.626-43.815-38.341 1.265-1.456-24.27 38.332-1.265z"/></g><path d="M293.749 328.644l-2.636-43.806 21.241-.704 2.627 43.815 38.341-1.273 1.456 24.27-38.341 1.273 2.635 43.816-21.232.703-2.636-43.815-38.341 1.265-1.455-24.27 38.341-1.274z" class="E"/><g class="H"><path d="M479.606 360.823s29.498 8.47 24.813 1.617a42.12 42.12 0 0 0-24.579-17.316c-6.76-1.818-14.824-6.77-15.669-1.023-.435 3.05 4.802 6.225 11.06 7.968 7.052 1.977 4.375 8.754 4.375 8.754z"/><path d="M506.787 364.559c-1.598-2.111-5.078-5.705-8.19-6.568s-17.15-5.37-20.371-5.605-4.275 8.822-2.409 15.223 5.145 14.409 9.637 16.294 17.41 3.108 26.085-1.173c2.008-1.013-1.723-14.124-4.752-18.171z"/><path d="M506.803 365.372c-1.598-2.145-5.094-6.518-8.206-7.381-2.293-.628-10.675-3.292-16.122-4.717a8.9 8.9 0 0 1-.719 4.633c2.075 2.153 4.4 5.63 3.698 8.579 3.204 1.441 5.454 6.049 3.446 9.123 2.053.605 3.884 1.795 5.271 3.427 1.673 2.203 1.589 4.189.56 6.534 5.396.26 11.805-.377 16.808-2.84 2.007-1.013-1.724-13.354-4.736-17.358zm-28.111-13.002l-11.285.251c-3.171.067-12.273 5.027-12.968 5.496s-6.692 4.951-7.42 5.672c-1.406 1.365 1.991 4.189 4.015 3.636 2.836-.729 7.798-4.005 7.798-4.005l8.917-1.977s8.366.545 9.738.36 1.205-9.433 1.205-9.433zm-2.592 9.978l-9.938.837c-4.016 1.55-7.948 3.309-11.779 5.27-2.677 2.108-5.224 4.374-7.63 6.786-1.857 2.254 2.853 5.437 5.53 4.314s6.09-4.431 6.09-4.431l11.261-3.435 10.206-.721-3.74-8.62z"/><path d="M482.499 377.427l-2.317-8.378s-10.299.327-12.265.879-11.377 4.893-11.377 4.893-5.923 3.577-6.475 4.524c-2.058 3.477 2.903 5.027 4.559 4.549a45.52 45.52 0 0 0 5.856-3.033l9.111-1.885 12.908-1.549z"/><path d="M484.005 376.506l-11.478 3.301-9.445 4.792s-4.434 2.714-4.417 3.845 1.949 4.767 4.794 3.619 5.63-2.723 5.63-2.723l7.529-2.706 14.022-1.977-6.635-8.151z"/></g><g class="L"><path d="M405.189 97.382c.764-4.126-.262-7.777-2.293-8.154s-4.296 2.662-5.061 6.788.262 7.777 2.293 8.154 4.297-2.662 5.061-6.788zm36.538 5.495c.765-4.126-.262-7.777-2.292-8.155s-4.297 2.662-5.061 6.788.262 7.777 2.293 8.155 4.296-2.662 5.06-6.788z"/></g><path d="M404.781 128.334s11.043 3.351 27.875-.318c0 0-3.036 17.593-14.431 17.66s-13.444-17.342-13.444-17.342z" fill="#fff"/><path d="M413.155 98.566c-.552 5.086-4.928 8.923-9.445 10.757l.543-.837c.243 2.848 1.172 5.864 3.347 7.908.74.692 1.587 1.258 2.51 1.676-1.078-.106-2.119-.453-3.046-1.014-3.037-1.902-4.4-5.563-4.618-9.04 4.451-1.91 8.693-4.842 10.7-9.425l.009-.025z" class="M"/><g class="L"><path d="M390.743 82.324l18.195-.838s-7.177-9.911-18.195.838zm44.255-.286l16.731 7.18s-2.15-12.03-16.731-7.18z"/></g><g class="J"><path d="M442.47 523.618l-10.876-53.617" stroke="#9fbfcf" stroke-width="3" class="N"/><path d="M450.759 378.593l13.385-7.926 10.75-1.684" stroke="#e67e61" class="K"/></g></g></g><defs><clipPath id="A"><path fill="#fff" d="M0 0h1024v546.13H0z"/></clipPath><clipPath id="B"><path fill="#fff" transform="translate(185 -18)" d="M0 0h655v834H0z"/></clipPath></defs></svg>