<svg xmlns="http://www.w3.org/2000/svg" width="1024" height="547" fill="none" xmlns:v="https://vecta.io/nano"><style><![CDATA[.B{fill:#a36a4d}.C{stroke-linecap:round}.D{stroke-linejoin:round}.E{fill:#d38f68}.F{fill:#ffd27a}.G{fill:#f0ba6a}.H{fill:#f66d11}.I{fill:#1a1a1a}.J{stroke-width:1.04}.K{stroke-width:1.55}]]></style><g clip-path="url(#A)"><path fill="#b1d5ff" d="M0 0h1024v546.13H0z"/><g clip-path="url(#B)"><path d="M116.269 400.551l18.071 269.534 323.636.466 127.723.176 304.247.434 3.55-113.86s36.754-258.353 12.979-300.52c-7.036-12.449-69.283-19.758-155.818-23.597l-87.21-2.651c-108.044-2.008-233.566-.53-335.732 2.249l-55.998 1.719c-64.142 2.217-113.056 4.819-132.766 7.148-46.473 5.414-22.682 158.902-22.682 158.902z" class="F"/><g class="G"><path d="M185.032 445.868c.276.004.543-.099.744-.288s.32-.449.333-.725c0-1.172 5.349-116.638-36.545-173.488-.169-.232-.422-.388-.705-.433s-.573.024-.805.192-.388.422-.433.705.023.573.192.805c11.951 16.225 27.501 48.031 33.734 107.37a469.87 469.87 0 0 1 2.361 64.817c-.009.142.011.284.059.418s.121.257.217.362a1.06 1.06 0 0 0 .341.249 1.08 1.08 0 0 0 .411.096l.096-.08z"/><path d="M168.151 448.116h.144l16.883-1.173c.571-.038 1.104-.301 1.48-.732a2.16 2.16 0 0 0-.204-3.044c-.43-.376-.994-.567-1.565-.528l-15.228 1.043c-3.582-10.698-24.321-72.495-34.569-98.39-5.06-12.851-8.289-30.119-8.835-47.468-.563-17.67 1.847-28.208 4.497-30.859 7.39-7.389 40.047 1.944 61.669 8.113 30.232 8.642 122.084 6.65 126.036 6.57a2.17 2.17 0 0 0 1.94-2.205c-.012-.544-.228-1.063-.606-1.455a2.17 2.17 0 0 0-1.43-.662c-.948 0-95.146 2.057-124.751-6.425-16.53-4.723-29.766-8.208-40.674-9.911-13.172-2.072-21.188-1.141-25.236 2.891-8.513 8.53-8.208 53.701 3.374 82.985 11.132 28.144 34.778 99.049 35.019 99.756.139.435.414.815.784 1.083s.815.413 1.272.411zm629.442 3.342a1.08 1.08 0 0 0 1.061-.9c18.296-104.414 58.182-148.927 74.471-163.24.118-.094.216-.212.287-.346a1.09 1.09 0 0 0 .122-.432c.011-.151-.01-.303-.061-.445a1.08 1.08 0 0 0-.236-.383 1.1 1.1 0 0 0-.35-.278c-.135-.067-.282-.107-.432-.116s-.301.013-.443.064a1.11 1.11 0 0 0-.381.234c-21.541 18.907-39.79 48.03-54.231 86.567a455.35 455.35 0 0 0-20.883 77.925c-.047.283.02.573.185.808a1.09 1.09 0 0 0 .699.445l.192.097zm67.466-37.172a2.17 2.17 0 0 0 2.024-1.365c2.153-5.478 4.273-11.405 6.313-17.67 22.49-69.074 27.309-102.085 16.337-113.924-4.996-5.414-12.851-6.426-25.397-3.438-30.713 7.422-426.54-.161-430.507-.241a2.16 2.16 0 0 0-1.66.534c-.225.199-.406.442-.532.715a2.17 2.17 0 0 0-.032 1.743c.115.277.287.527.504.735a2.15 2.15 0 0 0 .757.469 2.17 2.17 0 0 0 .882.125c16.321.322 400.356 7.679 431.633.129 10.843-2.619 17.397-1.96 21.188 2.168 9.477 10.233 4.144 44.063-17.269 109.651-2.008 6.137-4.112 12-6.233 17.382a2.17 2.17 0 0 0 .029 1.658c.229.527.658.941 1.192 1.153a2.28 2.28 0 0 0 .771.176z"/><path d="M828.613 453.498a2.18 2.18 0 0 0 .885-.108c.285-.097.546-.252.767-.455a2.16 2.16 0 0 0 .519-.725 2.17 2.17 0 0 0 .184-.873c0-.301-.063-.598-.184-.873a2.16 2.16 0 0 0-.519-.725c-.221-.203-.482-.358-.767-.455a2.16 2.16 0 0 0-.885-.108c-19.855 0-41.445-.144-67.95-.337a2.17 2.17 0 0 0-1.533.635c-.407.407-.635.958-.635 1.534s.228 1.126.635 1.533.958.635 1.533.635l67.982.322h-.032z"/></g><path d="M794.719 670.856c4.995-45.669 23.902-203.656 51.002-255.028 31.806-60.303 99.964-109.908 142.019-71.258 33.91 31.163-59.805 244.698-97.394 326.286h-95.627z" class="F"/><path d="M795.422 658.278a2.17 2.17 0 0 0 2.152-1.912c6.57-56.544 24.513-193.07 49.123-239.751 14.088-26.73 35.083-50.825 57.621-66.359a2.17 2.17 0 0 0 .461-2.948 2.17 2.17 0 0 0-2.919-.618c-23.084 15.871-44.593 40.625-58.986 67.917-24.963 47.308-43.003 184.476-49.605 241.261a2.18 2.18 0 0 0 .466 1.588c.358.448.877.737 1.446.806l.241.016z" class="G"/><path d="M133.809 670.294C95.256 586.12 4.785 378.384 38.198 347.686c42.055-38.65 110.214 10.988 142.004 71.291 26.393 50.054 44.978 201.358 50.536 251.317h-96.928z" class="F"/><path d="M229.322 659.451h.258a2.17 2.17 0 0 0 1.446-.813c.356-.452.517-1.026.449-1.597-6.57-56.223-24.545-192.122-49.283-239.06-14.683-27.839-36.626-52.898-60.191-68.753a2.18 2.18 0 0 0-.792-.375c-.286-.069-.584-.08-.875-.031s-.568.157-.816.317-.46.369-.624.615a2.17 2.17 0 0 0-.33.811c-.054.29-.048.587.017.875s.189.559.362.797a2.17 2.17 0 0 0 .648.589c22.987 15.454 44.416 39.935 58.777 67.163 24.401 46.295 42.264 181.52 48.818 237.566.066.521.319 1.001.712 1.349a2.17 2.17 0 0 0 1.424.547z" class="G"/><path d="M328.804 184.655s-43.646 82.214-50.778 115.386-40.786 58.825-42.247 81.346 0 32.899 0 32.899 9.991-7.084 15.485 0 3.213 10.763 16.385 6.024 22.361-29.284 22.361-29.284l47.131-134.165-8.337-72.206z" fill="#fff"/><path d="M356.595 458.526a2.2 2.2 0 0 0 1.146-.369c.341-.227.611-.544.782-.917.232-.526.245-1.122.037-1.658s-.62-.969-1.146-1.201c-1.719-.755-43.163-18.602-145.152-17.108a2.16 2.16 0 0 0-.819.177 2.14 2.14 0 0 0-.688.477c-.195.204-.349.443-.451.706s-.152.543-.146.825c.008.573.243 1.118.652 1.518a2.16 2.16 0 0 0 1.533.618c100.864-1.461 142.967 16.562 143.336 16.739a2.11 2.11 0 0 0 .916.193z" class="G"/><path d="M467.933 227.015c-3.84-7.839-7.663-15.646-11.968-23.244-2.57-4.53-12.465 18.361-15.244 13.959 2.763-18.168-10.635-65.042-9.735-65.861s48.657 15.132 62.649 20.545 101.522 56.995 101.522 56.995-7.71 58.632-43.372 39.179c-31.533-17.204-70.68-33.573-80.816-34.891-.9-2.297-1.944-4.449-3.036-6.682z" class="H"/><path d="M671.945 457.626c0 .594 25.236 2.2 26.923 2.345 12.851 1.044 30.248 5.462 40.4-4.996a31.31 31.31 0 0 0 6.763-12.031c1.606-4.9 2.554-10.843-.787-14.795-1.06-1.253-2.442-2.169-3.534-3.373-.691-.755-1.253-1.607-1.976-2.346-5.59-5.67-18.634 1.607-24.545 3.855-19.454 7.566-44.32 3.213-44.32 3.213l1.076 28.128z" fill="#f0e5dc"/><path d="M561.618 360.344c0 1.076-6.426 28.112-6.426 28.112l70.167 45.396 74.583-62.649-11.887-29.188-126.437 18.329z" fill="#616aa7"/><path d="M611.706 388.038c.418-5.414 3.101-10.329 4.08-15.63.225-1.237 2.089-.707 1.88.514-.739 4.176-2.458 8.032-3.373 12.192-.723 3.213-.611 4.707 1.895 6.843 1.831 1.607 3.727 3.068 5.462 4.723a101.73 101.73 0 0 1 6.923-21.252c.466-1.141 2.329-.643 1.864.514-3.936 9.799-6.844 19.276-7.374 29.894a1.01 1.01 0 0 1-1.004.885 1.01 1.01 0 0 1-1.004-.885 39.01 39.01 0 0 1 .322-7.373c-.132.063-.279.088-.424.071s-.282-.075-.396-.167c-2.329-1.735-4.497-3.711-6.682-5.59-.778-.499-1.396-1.211-1.78-2.051s-.52-1.773-.389-2.688z" fill="#333c72"/><path d="M596.218 375.428s-24.401-4.691-32.738-8.289a134.49 134.49 0 0 0-16.208-5.414l48.946-15.485v29.188z" class="B"/><path d="M539.995 363.589c18.377 5.397 54.616-7.02 54.616-7.02s0 18.377 1.077 21.606c1.526 4.594 35.131 3.791 56.753.546s47.565-14.056 54.054-38.906 3.213-79.998-5.413-89.732c-3.358-3.775-14.586-14.956-18.779-17.767-.931-.626-11.903-6.843-11.79-7.277 6.425-3.791 2.168-9.188-1.141-10.28-.257-3.583 4.385-5.398 2.779-10.297 1.719-3.213 3.807-6.153 5.237-9.462 2.184-5.028 1.205-9.381-3.213-13.349-6.827-6.136-14.216-6.666-19.887-7.598a66.91 66.91 0 0 0-35.469 4.337c-13.654 5.382-23.228 17.446-26.826 31.662a7.92 7.92 0 0 1-.996 2.426c-.037.067-.08.132-.128.192a28.37 28.37 0 0 1-5.928 4.819c-11.405 8.032-25.124 15.566-36.256 23.919a12.53 12.53 0 0 0-.931.739c-.56.438-1.096.904-1.607 1.398-7.614 7.55-14.264 22.955-19.148 45.428-4.353 20.208-5.381 69.218 12.996 74.616z" fill="#6f3a9c"/><path d="M651.704 176.912s17.381 1.221 15.694 9.976-13.782 9.863-27.999 25.011-22.248-33.123-22.248-33.123l34.553-1.864z" fill="#380762"/><g class="E"><path d="M618.932 344.136s-3.213-16.225 3.213-23.791c0 0 15.132 0 20.529-4.321s11.903-4.321 12.98-3.213a66.22 66.22 0 0 0 6.425 4.321s-2.169 12.98-4.321 17.301c.08-.032-29.188 4.289-38.826 9.703zm-19.165-86.471c2.844 1.606 16.867-8.498 24.739-22.988a136.08 136.08 0 0 1 16.063-23.613c-11.244-6.972-7.148-32.128-7.148-32.128l-33.236 6.121-.787 11.389c-.562 6.827-1.317 14.457-2.056 15.823a7.47 7.47 0 0 1-2.506 2.377c-1.288.932-2.326 2.168-3.02 3.598-1.076 6.024-.98 34.489 7.951 39.421z"/></g><path d="M577.167 155.001s-10.441-17.043-4.402-43.195c6.265-27.212 21.028-34.28 29.558-27.164 4.951 4.014 8.978 9.05 11.807 14.763 0 0 17.236-10.827 23.067-9.992 16.61 2.41 11.727 26.168 14.136 25.204 8.626-3.406 21.783.45 24.963 5.574 5.398 8.707-9.06 13.317-9.06 13.317s5.382 10.586 3.068 18.489c-1.799 6.153-7.485 9.719-16.063 17.783 5.638 22.73-26.216 21.076-26.216 21.076l-22.49-7.775-28.368-28.08z" class="I"/><path d="M594.835 214.694c17.108.819 30.875-14.714 30.312-25.011l-25.702 6.811c-.562 6.827-1.317 14.457-2.056 15.823-.651.983-1.527 1.797-2.554 2.377z" class="B"/><path d="M569.696 144.399c-.964 6.088-17.751 44.159 11.678 60.56 15.662 8.723 47.115-2.602 52.111-23.581 0 0 16.208-4.819 10.907-21.686-3.888-12.385-18.184 3.309-18.184 3.309s-.627-2.008-1.607-4.819a10.03 10.03 0 0 0-2.13-3.601 10.05 10.05 0 0 0-3.412-2.423c-11.1-4.819-23.613-13.734-24.095-22.778-2.776.508-5.626.46-8.383-.141a21.34 21.34 0 0 1-7.681-3.361s-7.968 10.505-9.204 18.521z" class="E"/><path d="M648.651 390.078c40.529-30.81 57.829-55.677 75.66-53.01 23.341 3.534 58.086 30.955 34.601 57.299-17.847 20-51.404 36.208-58.922 38.376s-22.167 8.032-22.167 8.032-1.077 14.056-4.322 18.377-137.328 17.67-137.328 17.67-69.074-20.883-68.062-56.528 16.224-50.81 35.677-48.641 79.998 16.208 96.206 22.698 22.698 16.209 22.698 16.209l25.959-20.482z" fill="#616aa7"/><path d="M514.133 472.662c101.844 4.289 156.493-23.63 233.743-23.068l-1.398 38.312-231.96 16.289-.385-31.533z" class="F"/><path d="M393.766 349.035s151.352 43.002 166.485 72.415c13.846 26.923 41.958 154.565 44.319 182.693-3.919 5.22-15.051 5.381-18.634 5.976-9.043 1.27-18.181 1.749-27.308 1.429a1.38 1.38 0 0 0-.925.312c-.26.213-.434.513-.489.845l-9.75-.482-109.523-172.54-137.714-104.639 93.539 13.991z" fill="#a24c26"/><path d="M714.836 274.74c-1.334-2.409-1.607-5.67-3.904-7.341-1.799-1.301-4.449-.659-6.249.659s-3.1 3.213-4.819 4.642a13.83 13.83 0 0 1-5.67 3.004 7.03 7.03 0 0 0-3.438 1.382c-1.462 1.462-.819 3.855-.096 5.751-2.281.98-5.735.69-6.972 2.811-.948 1.606.257 3.967-.803 5.558-.594.883-1.703 1.301-2.329 2.136-.413.702-.574 1.524-.458 2.33s.505 1.548 1.1 2.104a16.54 16.54 0 0 0 4.129 2.666c1.488.702 2.641 1.959 3.212 3.502.065.966.265 1.918.595 2.827.691.843 1.659 1.412 2.731 1.607 2.104.505 4.045 1.538 5.638 3.004 1.173 1.252 1.799 2.923 2.956 4.192 2.152 2.346 5.654 2.908 8.867 3.326a3.79 3.79 0 0 0 2.433-.591c.721-.467 1.262-1.165 1.535-1.98.143-1.622.401-3.233.771-4.819.61-1.51 2.024-2.65 2.506-4.192.931-2.94-1.719-6.426-.129-9.028.643-1.093 1.879-1.751 2.57-2.811a5.85 5.85 0 0 0 .615-2.885 5.84 5.84 0 0 0-.872-2.818c-1.059-1.686-1.885-3.507-2.458-5.413-.133-1.724-.09-3.458.129-5.173.008-1.492-.503-2.94-1.446-4.096 0-.097-.08-.225-.144-.354z" class="E"/><g class="B"><path d="M699.156 309.438c4.048.401 8.032 1.317 12.096 1.864 1.976.257 1.414 3.212-.53 3.019a90.15 90.15 0 0 1-12.128-1.703c-.209-.036-.408-.114-.587-.228s-.333-.262-.455-.436-.208-.37-.254-.577a1.63 1.63 0 0 1-.013-.63c.037-.208.115-.408.229-.587s.262-.333.436-.455a1.59 1.59 0 0 1 .576-.253 1.61 1.61 0 0 1 .63-.014zm-9.124-9.317c7.277 2.105 14.586 1.751 22.056 1.141 2.136-.161 2.795 3.084.61 3.341-8.032.964-16.176 1.687-23.999-.835-2.377-.772-1.044-4.321 1.333-3.647zm-5.238-10.184c9.414 1.204 17.895 2.008 27.309.144a1.83 1.83 0 0 1 .715-.014 1.82 1.82 0 0 1 .666.261c.203.129.379.298.516.495a1.82 1.82 0 0 1 .287.656 1.83 1.83 0 0 1 .015.715c-.043.237-.131.463-.261.666a1.82 1.82 0 0 1-.496.516c-.197.138-.42.236-.655.287-9.253 2.185-19.646 2.844-28.819 0-1.863-.706-1.381-4.016.723-3.726zm7.307-8.964c5.889-1.177 11.843-1.992 17.831-2.442a1.85 1.85 0 0 1 1.329.434c.369.313.601.758.645 1.24a1.85 1.85 0 0 1-1.637 2.005c-5.975.642-11.887 1.606-17.814 2.699-2.522.449-2.844-3.422-.354-3.936z"/></g><path d="M341.675 152.752c-13.349-14.554-9.751-44.512 13.526-54.889 1.704-.772 3.466-1.412 5.269-1.912-1.221-8.867-.563-26.409 11.244-35.935 61.042-48.946 82.118 13.686 82.118 13.686l2.506 9.141s-6.811 38.553-10.618 43.822-15.935 16.594-20.578 18.457c-3.855 1.606-16.915 4.112-26.489 1.446-11.453 21.236-43.902 20.433-56.978 6.184z" fill="#1e1d19"/><path d="M365.862 163.387l68.431 75.033 26.794-32.673-7.116-26.811-3.486-13.124-3.212-8.128c8.931-3.341 16.561-7.293 20.224-26.65 4.08-21.541-13.959-57.492-13.959-57.492-3.342 0-4.29 6.425-8.755 14.28s-33.252 17.445-36.609 20.786 2.377 21.317 1.269 23.55-7.02.369-11.486-2.988-11.967-13.767-16.433-5.944c-2.329 4.081.867 9.639 5.028 13.317 3.807 3.213 8.562 4.723 8.032 5.639a4.44 4.44 0 0 1-.82 1.14c-2.216 2.249-27.902 20.064-27.902 20.064z" class="E"/><path d="M417.572 152.239c2.506 2.939 25.028 19.019 36.401 26.713l-3.486-13.124-2.683-8.353s-10.168 3.727-30.232-5.236z" class="B"/><path d="M314.413 248.235c10.876 31.003 22.49 61.797 32.208 93.17 21.558.932 51.083 2.779 53.926 1.847 3.213-1.076 10.265-25.413 30.81-41.605s28.128-19.453 30.28-32.417 3.213-32.432 5.414-35.677c1.606-2.378 26.441 6.891 53.669 19.678 5.076-8.225 22.055-31.726 15.919-24.24-1.976 2.41 11.245-13.606 18.152-23.276l-47.517-27.389-1.799-.98c-3.867-2.187-7.845-4.171-11.919-5.944-14.04-5.413-43.565-14.81-44.657-13.734s2.506 21.284-5.076 42.906-11.903 27.019-12.98 25.943-11.244-23.807-21.862-37.22c-12.482-15.807-38.65-27.662-40.802-27.662s-43.26 21.59-48.657 32.401c-3.293 6.57-4.578 33.782-5.109 54.199z" class="H"/><g fill="#d45500"><path d="M481.874 227.192c11.598-14.201 25.268-30.811 26.489-49.943-.626-.321-1.221-.658-1.815-.979a70.68 70.68 0 0 1-8.723 25.413 189.61 189.61 0 0 1-17.364 24.095c-.788.996.594 2.41 1.413 1.414zm-70.696 56.913c5.092-7.309 13.076-12.642 16.562-21.059 2.136-5.124 1.847-10.907 2.04-16.353l.674-17.67c0-1.172 1.864-1.188 1.832 0l-.482 18.666c-.161 5.381 0 10.956-2.04 16.064-3.486 8.514-11.245 14.618-17.076 21.525-.691.819-2.12-.273-1.51-1.173zm12.804-44.127a.69.69 0 0 1 .257.209c.193-.07.406-.068.598.006a.85.85 0 0 1 .446.396c.482.761.774 1.626.852 2.523s-.06 1.801-.402 2.633a2.52 2.52 0 0 1-.61 1.022c-.282.287-.628.502-1.01.628a2.51 2.51 0 0 1-1.186.094 2.52 2.52 0 0 1-1.097-.458c-2.394-1.719-1.671-8.964 2.152-7.053zm-11.26 24.144c.9-.642 3.213-.771 3.614.482.264-.013.522.077.72.251a1.01 1.01 0 0 1 .34.681c-.04.866-.294 1.708-.74 2.45a5.24 5.24 0 0 1-1.814 1.807 2.5 2.5 0 0 1-1.126.402c-.402.041-.809-.015-1.184-.165a2.5 2.5 0 0 1-1.513-1.763 4.34 4.34 0 0 1 1.703-4.145z"/></g><path d="M283.504 444.148c58.375 6.426 118.871 27.036 132.975 34.602 9.366 5.044 98.086 156.91 112.8 175.094.883 1.093 1.526 1.719 1.863 1.799 2.33.627 10.843-10.072 20.449-23.533 15.486-21.638 33.734-50.376 33.734-50.376l-91.579-153.296c-14.538-19.469-126.63-72.287-126.63-72.287l-32.658-26.312-52.03 12.739s-15.132 45.379-15.132 72.431c0 21.573 16.208 29.139 16.208 29.139z" fill="#a24c26"/><g class="H"><path d="M276.279 346.192c10.233-15.662 34.57-76.544 38.698-85.138.241-.498 1.189 8.273 1.863 12.498 2.779.289 5.51 2.747 4.338 5.879a9.26 9.26 0 0 0-.274.707l24.514 29.75c7.116 8.835 13.574 17.975 20.256 27.148 3.582 4.819 105.282 34.135 94.888 38.553-22.489 9.638-115.658 43.934-126.437 44.978-9.156.835-27.678 12.481-34.103 16.626-2.635 1.719-15.807 9.156-20.883 9.156-20.787-5.815-8.241-76.527-8.691-78.712-1.59-8.273 1.832-15.325 5.831-21.445zm41.091-70.359c-.033-.147-.099-.284-.192-.402.08.225.144.402.192.402z"/><path d="M337.321 352.457c16.802 24.095 117.426 34.473 130.437 31.147.315-.068.618-.182.9-.337 3.486-1.992 3.775-12.626 3.052-23.566-.835-12.851-3.052-26.168-3.052-26.168-32.417 0-80.528-8.031-84.849-12.433s-10.811-71.339-10.811-72.415c0 0-27.019-85.411-51.821-56.882-.321.386-.659.771-.948 1.173s-.932 1.253-1.365 1.928c-20.915 32.481 1.734 133.505 18.457 157.553z"/></g><path d="M464.336 363.798s1.607 16.064 3.422 19.806c.319-.071.627-.185.916-.337 3.469-1.992 3.758-12.626 3.036-23.566l-7.374 4.097z" class="I"/><path d="M467.579 333.534s34.601-2.153 41.091-10.811 5.397-14.056 10.794-17.285 10.12-5.895 14.056-10.811c4.321-5.413 8.658-3.212 6.426 2.153 0 0 5.413-5.397 8.642-4.321s11.903 11.887 15.148 15.132c1.687 1.687 1.879 4.465-.675 5.397-.578.209-2.65-.144-2.907.209s.353 1.462.353 1.767a3.88 3.88 0 0 1-.434 1.992c-.401.82-1.092 1.606-.963 2.506a10.18 10.18 0 0 0 .851 1.735c.159.59.172 1.21.038 1.806s-.412 1.151-.809 1.616a10.28 10.28 0 0 0-1.847 3.212 28.11 28.11 0 0 0 0 3.872c-.53 4.931-8.032 6.329-11.952 6.762-2.242.106-4.457.544-6.57 1.302a20.29 20.29 0 0 0-6.425 5.59c-7.566 8.53-17.108 15.501-28.08 18.633-9.831 2.796-19.871 4.82-29.878 6.844l-8.964 1.686c.016.081-5.461-33.573 2.105-38.986z" class="E"/><g class="B"><path d="M542.323 304.748c1.783-2.763 4.963-4.386 8.032-2.731a26.8 26.8 0 0 1 4.819 3.951l6.008 5.526c1.349 1.398-.434 4-2.153 2.795-2.506-1.783-4.819-3.855-7.18-5.814-1.302-1.093-2.522-2.699-4.257-2.507-1.269.145-2.057 1.093-3.326 1.414-.336.064-.683.032-1.002-.093a1.81 1.81 0 0 1-.799-.612c-.203-.276-.324-.603-.349-.944a1.8 1.8 0 0 1 .207-.985zm-1.026 6.039c5.767 2.265 11.437 4.819 17.075 7.438 1.912.883.547 4.209-1.445 3.438-5.767-2.281-11.566-4.578-17.204-7.165-2.073-.948-.579-4.562 1.574-3.711zm-.546 15.149c4.819 0 9.638.417 14.585.176 2.442-.112 2.362 3.534 0 3.759a61.07 61.07 0 0 1-15.116 0c-2.2-.434-1.606-3.951.531-3.935zm-15.84-17.815c3.646-3.936 8.128-7.245 12.095-10.859 1.8-1.606 4.45.996 2.683 2.666a108.25 108.25 0 0 1-12.53 11.132c-1.799 1.237-3.646-1.493-2.248-2.939z"/></g><path d="M318.861 194.904c10.281 1.365 19.678 6.554 27.469 13.461 8.835 7.871 17.478 17.975 20.401 29.686.305 1.205 2.137.627 1.848-.578-3.004-12.289-12.145-23.068-21.51-31.228-7.531-6.845-16.83-11.442-26.842-13.269-.482.61-.932 1.253-1.366 1.928z" fill="#d45500"/><g fill="#1e1d19"><path d="M463.887 100.048s-3.213 6.907-9.912 5.252l9.912-5.252zm-21.354 11.164s-1.429 7.341-10.554 10.634l10.554-10.634zm17.475.347c-.718-1.986-.495-3.887.498-4.246s2.379.96 3.097 2.945.496 3.887-.497 4.246-2.38-.96-3.098-2.945zm-18.36 13.485c-.718-1.986-.496-3.887.497-4.246s2.38.96 3.098 2.946.495 3.886-.498 4.245-2.379-.96-3.097-2.945z"/></g><path d="M456.482 114.457a19.66 19.66 0 0 0 8.722 10.104l-.417-.819c-.04 2.149-.903 4.201-2.41 5.734-.572.501-1.223.902-1.928 1.189.815-.003 1.618-.196 2.346-.562a8.25 8.25 0 0 0 2.8-2.883c.681-1.177 1.06-2.505 1.103-3.864-3.715-2.591-7.14-5.575-10.216-8.899z" class="B"/><g fill="#fff"><path d="M460.27 136.641c-5.432 2.966-11.484 4.617-17.67 4.819 0 0 2.265 8.032 10.506 7.1s7.164-11.919 7.164-11.919zm5.446 25.268s-.177-3.374-2.667-3.374c-2.549-.15-5.087-.461-7.598-.931l-2.361-1.607-3.823.916-2.024.787s-1.607 43.485-13.686 44.207-50.553-45.123-57.107-45.91c-3.511-.502-7.075-.502-10.586 0 0 0-1.799 4.209-3.47 4.209-1.41.101-2.802.376-4.144.819l-6.667 5.831-4.16 1.607-2.49 3.341-4.996 2.49-2.795 4.434s36.079 10.537 51.051 41.315 28.191 41.766 42.793 39.565 40.16-75.339 44.047-94.005c0 0 1.173-.562-2.088-2.57a10.81 10.81 0 0 0-7.229-1.124z"/></g><g stroke="#380762" class="C D J"><path d="M670.494 225.039s-31.533 13.783-53.572 38.296m45.239 53.765l13.51-57.251m-113.94 45.525l-1.927-47.549m25.524-36.079s-8.321 25.798 6.008 41.894m26.763 55.34s-31.196-8.787-54.039 3.55m54.039 23.758l-23.518 10.281"/></g><g class="K C D"><path d="M368.612 247.544l5.96 74.231 34.874 6.377" stroke="#d45500"/><g stroke="#333c72"><path d="M668.906 433.739s-90.679-40.545-130.116-49.524"/><path d="M619.577 412.728l40.111-31.341"/></g><path d="M580.782 573.75l-86.647-145.842a30.73 30.73 0 0 0-12.386-11.63l-49.058-25.252" stroke="#78381c"/></g><g class="I"><path d="M605.217 158.568l-12.305-9.092s5.59-4.161 12.305 9.092zm-26.574-15.839h-8.45s6.811-5.044 8.45 0zm11.76 19.38c-1.059-.372-1.315-2.391-.571-4.509s2.205-3.534 3.264-3.162 1.315 2.39.571 4.508-2.205 3.534-3.264 3.163zm-19.701-7.197c-1.063-.372-1.322-2.398-.578-4.525s2.209-3.55 3.273-3.178 1.322 2.398.578 4.525-2.209 3.55-3.273 3.178z"/></g><path d="M580.38 152.239c-3.631 4.064-7.229 8.465-12.578 10.023l.273.675a10.8 10.8 0 0 0 4.562 5.076 16.39 16.39 0 0 1-2.65-4.096 11.76 11.76 0 0 1-.563-1.462l-.498.932c5.446-1.318 9.414-6.137 11.454-11.148z" class="B"/><g class="C"><path d="M588.65 184.27s-11.646 1.975-19.967-3.583" stroke="#a36a4d" stroke-miterlimit="10" class="J"/><path d="M313.482 273.568s18.49 107.337 55.131 107.819 67.162 2.828 67.162 2.828" stroke="#d45500" class="D K"/></g><path d="M448.079 106.971a1.67 1.67 0 1 1 0-3.341 1.67 1.67 0 1 1 0 3.341z" fill="#d35050"/><g stroke="#e0e3e6" class="C D J"><path d="M465.719 161.909s-12.144 73.186-31.116 71.917m-70.36-73.652s32.256 19.276 43.083 39.998 23.662 26.024 28.481 21.301"/></g></g></g><defs><clipPath id="A"><path fill="#fff" d="M0 0h1024v546.13H0z"/></clipPath><clipPath id="B"><path fill="#fff" transform="matrix(-1 0 0 1 995 41.3185)" d="M0 0h964v703.575H0z"/></clipPath></defs></svg>