<svg width="11" height="12" viewBox="0 0 11 12" fill="none" xmlns="http://www.w3.org/2000/svg">
<g clip-path="url(#clip0_1466_375)">
<path d="M5.027 0.5C5.0685 0.509616 5.11027 0.51806 5.15155 0.529083C5.36239 0.585373 5.5179 0.778635 5.51812 1.00473C5.52024 2.36437 5.51953 3.72424 5.51859 5.08411C5.51859 5.24265 5.4398 5.36392 5.33002 5.47321C4.64071 6.15994 3.95351 6.84857 3.2656 7.53648C2.75993 8.04215 2.25472 8.54804 1.74858 9.05324C1.45822 9.34315 1.11836 9.30773 0.894847 8.96343C0.368772 8.1533 0.0786441 7.26604 0.0261067 6.30137C0.0237613 6.25941 0.0139106 6.21763 0.0078125 6.17589V5.77717C0.0146142 5.73941 0.0251685 5.7019 0.0275139 5.66389C0.0985799 4.51184 0.488623 3.47916 1.20585 2.57663C1.99766 1.58006 3.01722 0.930853 4.25794 0.638145C4.50373 0.580213 4.75492 0.545501 5.00354 0.5H5.027Z" fill="#F66D11"/>
<path opacity="0.3" d="M5.35557 11.5C5.13862 11.477 4.92049 11.4608 4.7047 11.4301C3.90376 11.3157 3.16753 11.0293 2.4951 10.5801C2.21576 10.3937 2.17776 10.0393 2.41488 9.80147C3.63121 8.58116 4.85059 7.36387 6.06881 6.14543C6.17669 6.03754 6.30616 5.98782 6.45884 5.98782C7.79504 5.98876 9.13121 5.98782 10.4674 5.98876C10.8059 5.98901 11.0289 6.22845 10.9874 6.56502C10.7592 8.41673 9.84071 9.8235 8.23479 10.7706C7.49694 11.2059 6.68962 11.4339 5.83286 11.4805C5.79862 11.4824 5.76485 11.4932 5.73084 11.5H5.35557Z" fill="#F66D11"/>
<path d="M10.0221 2.73328C10.0221 3.15522 10.0254 3.57717 10.0209 3.9991C10.0181 4.24654 9.83471 4.44639 9.59222 4.48271C9.36353 4.5172 9.1325 4.38022 9.05534 4.15813C9.034 4.09667 9.02181 4.02866 9.02157 3.96346C9.01945 3.14303 9.01851 2.32237 9.0211 1.50194C9.02181 1.26646 9.15104 1.08657 9.35555 1.0141C9.55399 0.943968 9.78266 0.995099 9.90181 1.16983C9.96795 1.26693 10.0132 1.3971 10.0172 1.51414C10.031 1.91989 10.0226 2.32659 10.0226 2.73305L10.0221 2.73328Z" fill="#F66D11"/>
<path d="M7.02074 3.23242C7.02074 2.99061 7.01934 2.74856 7.02099 2.50675C7.02286 2.21287 7.23021 1.9931 7.51024 1.98466C7.78442 1.97645 8.01638 2.19411 8.02062 2.48541C8.0281 2.98475 8.02763 3.48433 8.02084 3.98364C8.01685 4.27754 7.79311 4.4905 7.51398 4.48698C7.23513 4.4837 7.02333 4.26299 7.02099 3.97006C7.01912 3.72426 7.02052 3.47844 7.02052 3.23265L7.02074 3.23242Z" fill="#F66D11"/>
</g>
<defs>
<clipPath id="clip0_1466_375">
<rect width="11" height="11" fill="white" transform="translate(0 0.5)"/>
</clipPath>
</defs>
</svg>
