<svg xmlns="http://www.w3.org/2000/svg" width="1024" height="547" fill="none" xmlns:v="https://vecta.io/nano"><g clip-path="url(#A)"><path fill="#b1d5ff" d="M0 0h1024v546.13H0z"/><path d="M518.69 447.087c5.057 11.14 8.876 21.062 9.334 25.624 1.236 12.861-.927 14.878-1.768 30.825s3.239 29.043 4.29 31.28 3.35 2.951 4.747.197 1.236-11.804 1.236-11.804c1.377 4.002 2.399 8.117 3.054 12.296.482 4.746.778 9.947 1.755 13.046s5.823 2.238 6.898-1.931-2.324-19.845-2.225-23.029 2.213-2.804 3.919 2.569 5.291 16.513 6.181 23.092.828 8.607 3.028 9.394 3.709-1.365 3.969-4.021-.73-9.652-.767-15.677-1.508-8.14-.791-8.779 2.658 1.942 3.437 6.652 1.434 12.111 2.398 13.746 4.574 1.131 5.266-2.619-.494-17.656-1.842-22.476-2.596-6.234-1.978-7.476 2.374.172 4.117 3.406 3.437 12.873 5.204 14.951 4.191 1.058 4.327-2.311-1.953-10.943-2.312-13.144-12.51-20.276-14.834-23.903c-2.291-3.683-4.208-7.584-5.724-11.644-.198-.873-7.887-29.51-15.675-55.515l-25.244 17.251z" fill="#fcb288"/><g fill="#2f2219"><path d="M467.998 154.879s24 13.913 26.647 45.545c0 0 23.995 19.427 15.564 40.44-6.997 17.423-128.863 2.816-94.867 7.956l14.266-104.403 38.39 10.462z"/><path d="M425.998 228.643c-2.472 2.57-4.945 5.029-7.318 7.697l-13.166 15.136c-7.244 7.931-15.292 15.32-24.65 19.673-7.244 3.32-14.995 4.66-22.66 5.373-14.575 1.34-29.879.234-41.586-8.189-6.416-4.611-11.72-12.16-10.99-20.816.816-9.837 16.268-18.161 18.543-27.825 1.582-6.616 26.974-10.968 22.784-20.091-18.957-12.92-17.295-63.52 0-72.705 6.725-3.578 4.413-26.546 12.559-43.699s18.84-16.464 30.745-14.902c2.473.344 21.523-33.198 44.838-32.276 14.612.615 15.403 13.083 15.403 13.083 1.471 3.689 25.441-5.177 37.235 18.665 7.553 15.271-8.542 49.011-8.542 49.011l-12.041 21.37c-6.441 11.275-12.362 22.771-19.705 33.333-6.849 9.837-9.062 39.543-15.416 49.638a49.84 49.84 0 0 1-6.033 7.525z"/></g><path d="M440.502 250.161c4.636-15.53 5.847-34.662 8.777-50.29l-2.299-10.439-1.162-10.205-1.026-6.96v-.061c-.248 0 9.484 1.963 21.228-11.194 15.205-22.046 9.195-51.649-4.07-74.974-1.458-2.459-14.216-14.878-16.318-11.804-3.214 4.672-16.775 6.394-19.433 7.857-2.843 1.586-11.423 12.357-14.278 14.521a28.75 28.75 0 0 0-5.959 5.115c-4.648 6.246-3.535 12.837-4.45 14.829-.655 1.389-.445 4.266-1.063 2.877-.715-1.573-1.541-3.093-2.473-4.549-2.843-4.341-9.89-4.722-13.153-2.878-6.367 3.566-6.564 11.288-5.526 15.333 4.042 15.616 19.483 10.353 19.483 10.353 6.057 21.542 2.324 42.863-1.793 52.355 3.091 19.489 9.754 34.981 16.331 53.585 2.67 7.574 9.259 37.329 10.322 45.125 4.784-7.771 13.054-25.833 16.862-38.596z" fill="#d38f68"/><path d="M459.663 140.739c-3.523-.184-24.044 2.89-27.036 4.144 9.284 9.849 26.035 14.066 27.036-4.144z" fill="#fff"/><path d="M320.305 433.539c8.839 10.661 164.256 6.972 167.346 5.115s-115.166-53.51-129.098-44.03-38.248 38.915-38.248 38.915z" fill="#e86e61"/><path d="M322.097 419.632s-40.177 75.939 8.295 82.381 20.41-14.816 20.41-14.816-31.017 3.062-31.845-8.951 16.466-60.249 16.466-60.249l-13.326 1.635z" fill="#d45500"/><g fill="#f66d11"><path d="M325.78 220.539s-46.197 18.124-62.108 39.678-17.665 127.47-15.156 143.491 25.083 71.88 50.562 72.225 90.812-40.502 90.812-40.502l-64.11-214.892z"/><path d="M283.241 246.496s-21.103-30.063-17.085-35.006 57.323-17.214 61.811-11.767.433 20.731.433 20.731l-11.126 2.189s.791-17.743-2.868-18.259-30.263 5.41-31.153 7.783 10.73 31.784 10.73 31.784l-10.742 2.545z"/></g><g fill="#d45500"><path d="M333.581 451.539h-.26a1.74 1.74 0 0 1-1.261-.349 1.72 1.72 0 0 1-.655-1.127c-3.894-27.874-11.386-73.516-14.921-77.291-3.35-2.717-36.382 6.8-65.05 17.214-.426.151-.895.128-1.305-.063a1.71 1.71 0 0 1-.883-.957 1.67 1.67 0 0 1-.109-.648 1.66 1.66 0 0 1 .149-.639 1.67 1.67 0 0 1 .386-.533c.163-.151.354-.268.563-.344.148-.062 15.638-5.656 31.56-10.488 33.168-10.083 35.851-7.193 37.161-5.804 5.328 5.705 14.105 66.95 15.811 79.172.064.4-.021.81-.239 1.152a1.67 1.67 0 0 1-.947.705zm-55.396-81.802c-.174.064-.359.097-.544.098-.453.01-.892-.157-1.222-.465a1.72 1.72 0 0 1-.546-1.183c-.457-11.066-4.166-108.866 5.81-121.088s44.244-27.234 45.74-27.874c.417-.171.885-.174 1.305-.009a1.74 1.74 0 0 1 .945.894 1.65 1.65 0 0 1 .157.64 1.66 1.66 0 0 1-.105.65c-.079.207-.198.397-.351.557a1.68 1.68 0 0 1-.542.379c-.358.16-34.947 15.296-44.442 26.928-7.763 9.516-6.292 89.008-5.068 118.837.009.358-.096.709-.3 1.003a1.7 1.7 0 0 1-.837.633z"/></g><path d="M322.493 302.183c3.4 36.051 11.324 75.495 11.324 75.495l24.922-49.576-36.246-25.919z" fill="#621406"/><path d="M345.387 406.635c-7.813 65.684 18.308 187.989 14.13 216.748s-15.626 173.369-7.776 180.747 52.391 9.59 57.929 3.135l16.565-169.041c5.131-59.167 6.664-112.53 6.664-112.53s14.859 79.664 16.33 104.022 5.068 176.603 9.568 177.574 42.291 6.59 59.475-3.136V615.207c-.94-61.442-17.839-176.173-17.122-193.817.853-19.575-155.763-14.755-155.763-14.755z" fill="#a24c26"/><path d="M433.825 532.95h-.235c-.271-.031-.533-.114-.772-.246s-.449-.308-.619-.521a2.07 2.07 0 0 1-.372-.717c-.075-.261-.097-.534-.067-.803 2.918-26.03 16.924-75.139 18.025-74.844s-10.904 48.605-13.896 75.311c-.063.501-.307.962-.687 1.297a2.1 2.1 0 0 1-1.377.523z" fill="#78381c"/><path d="M502.905 445.7c-3.882 6.246-51.353-2.226-106.896-18.124-48.608-13.919-74.099 9.197-77.264 5.619-7.738-8.755 3.981-134.785 1.447-136.79s-35.035-3.541-51.365-6.209c-15.749-2.57-47.52-11.693-46.815-35.571s15.996-81.262 20.533-81.914 49.782 17.017 48.855 21.689-8.653 31.428-5.6 30.457 50.042-25.821 55.296-26.522 24.144-3.689 47.323-8.693c0 0 90.664-8.668 99.688-5.029 23.896 9.628 47.495 152.11 51.859 167.221s32.228 140.7 30.04 142.47-51.315 10.562-51.315 10.562L502.905 445.7z" fill="#6f3a9c"/><path d="M267 263.857c-.89.234 16.257-37.243 17.147-37.145s-9.42 35.104-17.147 37.145z" fill="#380762"/><path d="M368.38 193.7c5.946-1.119 12.696-3.369 19.705-4.919a5.63 5.63 0 0 1 1.001-.135c5.465-.197 53.9-5.238 82.135-5.238-8.543 42.187-85.04 52.429-102.841 10.292z" fill="#d38f68"/><path d="M417.223 159.836c5.006 9.295 15.786 13.107 28.111 18.886l.47.578-1.026-6.996s-15.947-2.595-27.555-12.468z" fill="#a36a4d"/><path d="M242.93 172.711c6.181.147 49.374 17.128 48.472 21.689-4.216 1.23-6.663-1.979-11.064-3.516s-18.544-5.558-22.339-8.41c-3.263-2.447-12.325-7.587-15.069-9.763z" fill="#380762"/><path d="M315.359 116.186a9.72 9.72 0 0 0-6.058-.172 40.76 40.76 0 0 0-5.785 2.853c-.925.538-1.955.874-3.02.986a7.61 7.61 0 0 1-3.161-.335c-1.589-.91-2.878-2.26-3.709-3.885-3.882-6.148-4.796-13.304-5.637-20.325-.362-3.568-.935-7.111-1.718-10.611-.68-2.779-1.422-7.168-3.536-9.21-.841-.811-2.287-1.316-3.152-.516-.252.263-.442.578-.557.922-1.236 2.975-.494 6.271-.235 9.345.186 2.225.334 4.463.334 6.689 0 1.07.668 4.353.557 5.422-.062.676-.347 2.89-1.546 2.041-.604-.492-1.104-1.098-1.471-1.783-3.585-5.484-6.008-14.091-8.653-20.005-.853-1.881-1.941-3.849-3.833-4.697a1.9 1.9 0 0 0-1.063-.197c-1.335.258-1.458 2.459-1.557 3.517a15.06 15.06 0 0 0 1.001 5.939c.643 2.238.902 4.586 1.582 6.836.829 2.73 1.805 5.41 2.473 8.177a44.04 44.04 0 0 1 1.557 6.566c.014.482-.106.958-.346 1.377-.198.345-4.747-8.349-5.068-8.988a103.99 103.99 0 0 1-4.142-9.086c-.341-.836-.889-1.572-1.594-2.139-.386-.431-.895-.734-1.46-.867s-1.156-.092-1.695.12-1.001.584-1.321 1.065a2.8 2.8 0 0 0-.469 1.625 8.79 8.79 0 0 0 .507 3.689c.931 3.181 1.949 6.341 3.053 9.48.482 1.353 5.6 12.296 3.078 12.382-1.149 0-4.413-4.918-5.266-5.557-1.718-1.402-7.924-8.939-9.494-3.874-1.076 3.48 4.636 8.939 6.552 11.485 3.078 4.119 5.649 8.607 8.443 12.947 5.081 7.857 10.842 18.984 5.279 27.874-.779 1.451-9.989 21.456-10.693 22.944 1.038 6.049 26.875 11.669 29.026 13.808 0 0 10.78-38.94 12.869-42.924s7.219-8.902 10.347-14.866c2.262-4.291 5.019-8.078 9.321-10.34 1.422-.738 3.091-1.488 3.573-3.013.581-2.041-1.335-3.984-3.313-4.697z" fill="#d38f68"/><path d="M319.179 207.69s20.002 12.726 21.164 37.465-10.199 70.995-15.86 92.402-10.595 46.232-24.922 67.626c-4.537 6.763 2.262 38.313 2.262 38.313s30.584-57.47 43.045-112.69 18.135-90.152 9.074-111.558-18.766-22.305-18.766-22.305-17.913 1.464-15.997 10.747z" fill="#f66d11"/><path d="M502.906 447.37a1.68 1.68 0 0 1-1.146-.418c-.315-.278-.512-.664-.553-1.081s.079-.834.334-1.167.628-.558 1.043-.629c13.833-2.705 21.412-8.607 21.931-10.058-.136-.959-2.942-12.554-6.181-25.981l-16.318-69.987c-6.849-32.731-8.802-89.427-7.875-89.476s4.351 56.315 11.126 88.787c4.067 19.415 11.126 48.593 16.293 69.889l6.268 26.94c0 3.861-10.755 10.439-24.613 13.144-.102.024-.205.036-.309.037z" fill="#380762"/><g fill="#2f2219"><path d="M417.784 106.223s9.334-6.627 13.079-6.787c0 0-7.701-5.164-13.079 6.787zm46.447-9.86s-9.778-1.918-13.054-.184c0 .061 5.056-7.771 13.054.184zm-34.282 25.698c1.445-.293 2.14-2.855 1.553-5.723s-2.234-4.956-3.679-4.663-2.141 2.855-1.554 5.723 2.235 4.956 3.68 4.663zm30-7.288c1.445-.293 2.14-2.855 1.553-5.723s-2.234-4.956-3.679-4.663-2.141 2.855-1.554 5.723 2.235 4.955 3.68 4.663z"/></g><path d="M445.612 113.075c3.202 4.414 6.589 8.607 11.126 11.583.213.115.376.304.458.53a.98.98 0 0 1-.013.699c-.826 2.071-2.266 3.842-4.129 5.078a8.65 8.65 0 0 1-1.903.972c.908-1.025 1.735-2.118 2.472-3.271a16.94 16.94 0 0 0 1.656-3.406l.446 1.23c-4.935-3.062-8.541-7.846-10.113-13.415z" fill="#a36a4d"/><g fill="#1c2f42"><path d="M679.297 270.23s51.859 6.603 73.703 24.506 51.204 125.551 52.811 142.544-6.861 79.823-32.821 86.795-103.175-17.976-103.175-17.976l9.482-235.869z"/><path d="M729.463 285.774s13.71-36.124 8.32-40.133-63.047-2.877-66.138 3.923 4.92 21.222 4.92 21.222l11.905-.627s-5.415-17.915-1.817-19.378 32.29-2.275 33.81-.086-2.67 35.202-2.67 35.202l11.67-.123z"/></g><g fill="#152332"><path d="M731.455 507.981h.272a1.84 1.84 0 0 0 1.199-.683 1.83 1.83 0 0 0 .384-1.321c-3.289-29.448-7.529-77.955-4.945-82.725 2.719-3.689 38.903-2.459 70.86.787a1.82 1.82 0 0 0 1.317-.397c.37-.299.608-.73.661-1.202a1.77 1.77 0 0 0-.056-.691 1.76 1.76 0 0 0-.318-.617 1.78 1.78 0 0 0-.532-.448 1.77 1.77 0 0 0-.664-.211c-.174 0-17.443-1.734-34.948-2.582-36.469-1.734-38.471 1.906-39.436 3.689-3.955 7.18 3.029 71.954 4.476 84.84a1.76 1.76 0 0 0 .568 1.106c.319.287.732.449 1.162.455zm35.242-97.739c.192.03.388.03.581 0 .466-.109.871-.395 1.128-.797a1.81 1.81 0 0 0 .244-1.355c-2.472-11.447-24.081-112.173-37.445-122.083s-52.242-16.452-53.887-16.698a1.83 1.83 0 0 0-1.339.318c-.388.276-.653.691-.737 1.157a1.75 1.75 0 0 0 .016.695c.051.228.147.444.283.634a1.79 1.79 0 0 0 .507.478 1.8 1.8 0 0 0 .652.247c.384.074 39.633 6.615 52.354 16.046 10.409 7.697 29.595 89.217 36.11 119.969a1.73 1.73 0 0 0 .536.946 1.75 1.75 0 0 0 .997.443zM703.9 352.711c5.921 37.674 5.18 117.067 5.18 117.067l-25.961-5.176-32.97-106.223 53.751-5.668z"/></g><path d="M689.67 386.967s-.383 17.116-2.621 34.871 5.736 13.955 2.621 28.858 10.496 27.259 2.905 41.215-142.956 9.517-151.572 6.271-10.137-18.641-3.449-23.079-5.106-14.583.643-28.502 4.425-97.996 4.24-101.169-4.24-3.172-7.22 6.345-9.457 8.238-15.193 12.997-4.784 10.525-10.52 22.82-27.419 15.222-45.246 7.734-18.543-38.485-6.069-56.24 72.022-73.848 83.963-76.405c14.835-3.173 32.562-5.042 53.158-10.55l65.223 6.627c12.535.75 33.266 8.201 42.822 14.14s65.927 65.512 82.517 82.049 11.955 32.547 8.122 40.576-44.726 13.894-55.308-5.078c-10.829-19.44-25.182-17.743-29.966-29.165-4.289-10.218-19.05-6.025-19.05-6.025v31.71z" fill="#951414"/><g fill="#2f2219"><path d="M580.056 157.037s-17.307-19.673-6.181-50.154 25.578-12.173 31.277-2.336c4.66-3.382 9.061-12.468 33.377-6.48s34.095 31.969 34.095 31.969 21.251-3.111 16.516 32.854c-4.945 37.477-25.33 60.888-41.623 67.085-9.124 3.48-67.461-72.938-67.461-72.938z"/><path d="M696.938 135.604l.123-.061c.455-.259.79-.685.931-1.187a1.97 1.97 0 0 0-.177-1.494 22.99 22.99 0 0 0-6.181-6.959c-4.079-3.086-8.072-4.23-11.868-3.382-5.933 1.328-8.987 7.058-9.111 7.304-.119.229-.192.478-.214.735s.006.515.084.76.204.473.371.67.37.36.6.479a1.99 1.99 0 0 0 .739.213c.258.022.517-.006.764-.084s.476-.203.674-.368a1.97 1.97 0 0 0 .481-.597s2.361-4.378 6.503-5.275c2.596-.578 5.488.319 8.653 2.668 2.083 1.555 3.825 3.518 5.118 5.767.245.418.636.733 1.099.882s.965.125 1.411-.071z"/></g><path d="M611.404 291.749c-28.557-5.349-26.949-33.825-23.34-34.514a10.6 10.6 0 0 0 4.16-1.768c1.242-.88 2.277-2.018 3.035-3.335.964-1.721 1.026-2.889 1.533-6.344a112.65 112.65 0 0 0 .952-15.124v-2.644l50.388-14.004s-1.57 32.509 1.916 37.575a19.37 19.37 0 0 0 6.49 5.238c3.87 2.127-20.867 39.469-45.134 34.92z" fill="#fcb288"/><path d="M643.669 228.979c-13.438 32.558-39.46 24.197-46.877 21.64.803-5.324.939-16.427.951-19.907l45.926-1.733z" fill="#e67e61"/><path d="M574.689 163.886c-.964 6.455-7.837 44.633.384 62.265 5.76 12.296 21.324 21.985 29.026 22.894 25.874 3.087 44.034-24.738 51.686-37.28 0 0 21.448-6.517 14.241-28.723-5.291-16.328-20.15 4.783-20.15 4.783a145.77 145.77 0 0 1-3.227-21.554 12.56 12.56 0 0 0-3.277-7.486 12.68 12.68 0 0 0-7.206-3.912c-17.208-2.914-41.425-10.833-46.976-22.932.025.037-12.931 21.346-14.501 31.945z" fill="#fcb288"/><path d="M613.716 206.847c-7.603 2.594-23.995 3.172-23.995 3.172 11.756 28.723 23.995-3.172 23.995-3.172z" fill="#fff"/><g fill="#2f2219"><path d="M616.219 174.185c6.056.577 11.178 2.901 14.729 8.614 1.259 2.027-1.536 4.488-2.79 2.45-3.059-4.92-7.28-6.672-12.468-7.154-2.226-.161-1.709-4.076.529-3.91zm-39.731-5.571c4.673-2.085 9.417-2.472 14.415.29 1.769.972.762 3.939-1.018 2.954-4.303-2.375-8.135-1.926-12.131-.158-1.713.763-2.978-2.335-1.266-3.086z"/></g><path d="M645.228 839.89c-2.311-9.714-2.979-19.809-4.462-29.731L616.907 641.56c-9.544 60.249-12.363 135.868-19.174 200.42-1.051 9.996-86.065-12.517-86.288-22.243-.606-27.677.804-151.47 2.052-171.562 5.674-91.43 17.196-211.657 17.196-211.657l171.216 12.836s23.092 207.318 31.523 377.785c.767 16.378-84.717 27.395-88.204 12.751z" fill="#f66d11"/><path d="M603.307 544.339l14.427 101.255c.081.591-.076 1.191-.437 1.668s-.897.792-1.492.877c-.106.012-.214.012-.321 0a2.28 2.28 0 0 1-1.489-.554c-.413-.357-.683-.85-.761-1.389 0 0-11.472-101.882-9.927-101.857z" fill="#d45500"/><g fill="#f66d11"><path d="M683.822 336.32c-30.188 0-129.703-3.689-131.558-2.595s-21.436 100.948-21.609 102.792 5.946 33.26 9.309 33.26 169.04-14.558 161.944-20.423c-21.238-17.669-18.086-113.034-18.086-113.034z"/><path d="M687.927 263.96c-.668 14.902-4.339 70.552-5.081 75.372s-21.25.738-23.488-1.857 1.731-78.262 4.71-78.262 24.143-1.61 23.859 4.747zm-106.944-8.159c-1.113 19.464-1.93 73.941-4.847 78.392s-20.596 2.779-22.833 2.779.136-74.783 2.744-77.943 25.084-6.007 24.936-3.228z"/></g><path d="M613.196 444.327c16.986 0 38.558-.799 40.214-4.783 2.09-5.017 5.996-57.913.989-66.532a3.69 3.69 0 0 0-1.114-1.336 3.72 3.72 0 0 0-1.605-.681c-15.836-2.09-81.01-3.836-84.656.824-3.314 4.218-5.168 59.819-3.264 65.979.531 1.709 1.52 4.918 28.828 6.148.235.036 9.433.381 20.608.381zm36.32-6.837c-7.986 4.242-75.928 3.246-81.59-1.229-1.879-7.378.754-55.528 2.571-61.565 6.478-2.041 59.339-2.115 80.255.541 3.561 5.521.755 55.54-1.236 62.253z" fill="#d45500"/><path d="M689.471 263.407s-21.089 13.341-22.252 39.445 10.743 74.745 16.702 97.283 11.126 48.679 26.245 71.192c4.722 7.168-2.423 40.453-2.423 40.453s-32.204-60.507-45.332-118.654-19.088-94.91-9.544-117.46 19.779-23.473 19.779-23.473 18.84 1.476 16.825 11.214z" fill="#1c2f42"/><g fill="#fcb288"><path d="M796.367 380.287c-4.08-5.73-45.184-4.107-48.67 13.206s-4.215 37.133-12.894 54.642c-.544.701-10.371 13.353-13.376 14.484-3.56 1.328-14.031-6.812-17.826-7.107-4.945-.393-1.051 13.292-1.051 13.292-.976 3.172-29.112 16.808-32.957 18.849-4.166 2.201-3.56 5.779-2.93 9.517.247 1.463-4.784 3.049-5.761 6.222s.866 5.004 6.181 4.992c4.537 0 3.561 3.172 6.997 5.606s7.517-2.323 11.534 1.082c7.059 5.964 35.443-9.762 54.864-27.05 13.746-12.21 20.15-22.968 20.15-22.968 10.149-13.956 16.714-32.719 26.059-50.277 13.339-25.108 9.68-34.49 9.68-34.49zM545.996 200.514c-2.066-.477-4.231-.288-6.181.541-1.956 1.056-3.824 2.265-5.588 3.615-1.879 1.23-4.19 2.066-6.317 1.402-1.74-.737-3.227-1.963-4.277-3.529-4.71-5.791-6.515-13.07-8.233-20.152a90.84 90.84 0 0 0-3.029-10.685c-1.038-2.767-2.324-7.181-4.735-9.013-.964-.738-2.472-1.082-3.288-.16a2.58 2.58 0 0 0-.47 1.021c-.853 3.184.248 6.479.891 9.603.469 2.262.877 4.524 1.149 6.824.136 1.094 1.236 4.377 1.236 5.471 0 .713 0 3.013-1.347 2.287-.676-.436-1.26-1-1.718-1.66-4.327-5.188-7.85-13.722-11.312-19.451-1.1-1.832-2.472-3.689-4.5-4.365a1.9 1.9 0 0 0-1.112-.074c-1.335.418-1.236 2.717-1.162 3.787a15.55 15.55 0 0 0 1.73 5.976c.928 2.213 1.484 4.586 2.473 6.811 1.236 2.693 2.472 5.324 3.548 8.091.963 2.116 1.76 4.303 2.386 6.541a2.89 2.89 0 0 1-.186 1.451c-.173.381-5.884-7.992-6.292-8.607a121.39 121.39 0 0 1-5.328-8.816 5.22 5.22 0 0 0-1.904-2.004c-.41-.306-.887-.511-1.392-.599a3.27 3.27 0 0 0-1.513.095c-.581.274-1.07.711-1.406 1.257a3.28 3.28 0 0 0-.485 1.817c.068 1.281.396 2.536.964 3.688 1.335 3.148 2.757 6.271 4.277 9.345.655 1.328 7.232 11.988 4.648 12.296-1.236.16-5.118-4.463-6.07-5.066-1.928-1.229-9.197-8.213-10.198-2.828-.68 3.689 5.835 8.607 8.097 10.98 3.708 3.861 6.836 8.177 10.223 12.296 6.181 7.439 13.389 18.16 8.765 27.936-.507 1.229-25.219 67.306-31.152 79.786-10.83 22.821-13.376 42.482-10.199 58.331s23.908 16.169 34.75 8.607 14.241-19.759 17.196-40.219c2.868-19.821 18.975-112.186 20.644-116.514s6.33-9.984 8.815-16.476c1.792-4.66 4.166-8.878 8.307-11.706 1.36-.922 2.992-1.893 3.288-3.516.309-2.164-1.879-3.923-3.993-4.415z"/></g><g fill="#2f2219"><path d="M636.982 167.793s-12.757-9.456-20.162-7.55c0 0 9.012-7.414 20.162 7.55zm-56.017-12.099s12.564-3.073 17.503.686c.012-.06-4.377-8.448-17.503-.686z"/></g><path d="M598.539 175.495c-2.089 5.705-4.871 11.066-9.432 15.062-.194.166-.331.387-.393.634a1.22 1.22 0 0 0 .047.743c1.063 2.164 3.832 2.976 6.069 3.234-1.236-1.476-2.769-2.459-3.782-3.959.007.086.007.172 0 .258l-.433.922c2.482-2.068 4.475-4.656 5.836-7.578a21.78 21.78 0 0 0 2.039-9.329l.049.013z" fill="#e67e61"/><path d="M664.204 185.943s-4.945 1.992-6.181 4.685 6.181 3.922 1.236 10.07" stroke="#e67e61" stroke-linecap="round" stroke-linejoin="round"/></g><defs><clipPath id="A"><path fill="#fff" d="M0 0h1024v546.13H0z"/></clipPath></defs></svg>